<?xml version="1.0" standalone="no"?>
<!DOCTYPE svg PUBLIC "-//W3C//DTD SVG 1.1//EN" "http://www.w3.org/Graphics/SVG/1.1/DTD/svg11.dtd" >
<svg xmlns="http://www.w3.org/2000/svg" xmlns:xlink="http://www.w3.org/1999/xlink" version="1.1">
<metadata>
Created by FontForge 20170731 at Thu Dec 21 12:11:33 2017
 By Aleksey,,,
Copyright (c) 1989, 1995, 2002 Adobe Systems Incorporated.  All Rights Reserved. (c) 1981, 1995, 2002 Heidelberger Druckmaschinen AG. All rights reserved.
</metadata>
<defs>
<font id="AvenirLTStd-Book" horiz-adv-x="556" >
  <font-face 
    font-family="Avenir LT Std 45 Book"
    font-weight="350"
    font-stretch="normal"
    units-per-em="1000"
    panose-1="2 11 5 2 2 2 3 2 2 4"
    ascent="756"
    descent="-244"
    x-height="468"
    cap-height="708"
    bbox="-167 -288 1000 920"
    underline-thickness="50"
    underline-position="-150"
    unicode-range="U+0009-FB02"
  />
<missing-glyph horiz-adv-x="500" 
d="M0 0h500v700h-500v-700zM250 395l-170 255h340zM280 350l170 255v-510zM80 50l170 255l170 -255h-340zM50 605l170 -255l-170 -255v510z" />
    <glyph glyph-name=".notdef" horiz-adv-x="500" 
d="M0 0h500v700h-500v-700zM250 395l-170 255h340zM280 350l170 255v-510zM80 50l170 255l170 -255h-340zM50 605l170 -255l-170 -255v510z" />
    <glyph glyph-name=".null" horiz-adv-x="0" 
 />
    <glyph glyph-name="nonmarkingreturn" horiz-adv-x="333" 
 />
    <glyph glyph-name="uni0009" unicode="&#x9;" horiz-adv-x="278" 
 />
    <glyph glyph-name="uni0009" unicode=" " horiz-adv-x="278" 
 />
    <glyph glyph-name="uni0009" unicode="&#xd;" horiz-adv-x="278" 
 />
    <glyph glyph-name="exclam" unicode="!" horiz-adv-x="278" 
d="M175 708h-72v-516h72v516zM193 48q0 22 -15 38q-15 15 -39 16q-24 -1 -39 -16q-15 -16 -15 -38t15 -37q15 -16 39 -17q24 1 39 17q15 15 15 37v0z" />
    <glyph glyph-name="quotedbl" unicode="&#x22;" horiz-adv-x="519" 
d="M157 473h60v235h-60v-235zM302 473h60v235h-60v-235z" />
    <glyph glyph-name="numbersign" unicode="#" 
d="M107 0h61l30 214h133l-30 -214h61l30 214h103v60h-95l22 162h99v60h-90l29 212h-61l-29 -212h-133l29 212h-61l-29 -212h-117v-60h108l-22 -162h-110v-60h102zM228 436h133l-22 -162h-133z" />
    <glyph glyph-name="dollar" unicode="$" 
d="M254 405q-51 17 -85 46q-35 28 -36 78q1 53 34 88t87 40v-252zM302 314q58 -18 94 -51q37 -34 37 -85q-4 -73 -46 -101q-43 -28 -85 -27v264zM254 49q-33 0 -75 22t-76 64l-60 -43q31 -44 86 -74q55 -31 125 -36v-66h48v68q88 6 145 58q56 52 58 136q-3 95 -65 142
q-61 47 -138 71v267q37 1 72 -15q35 -17 57 -52l56 48q-28 34 -71 59q-44 25 -114 26v68h-48v-70q-76 -6 -133 -57q-57 -50 -60 -138q4 -90 62 -135q59 -45 131 -64v-279z" />
    <glyph glyph-name="percent" unicode="%" horiz-adv-x="833" 
d="M390 545q-2 75 -51 124t-125 51q-76 -2 -125 -51t-51 -124q2 -75 51 -124t125 -51q76 2 125 51t51 124v0zM330 545q-1 -50 -34 -82t-82 -33q-49 1 -82 33t-34 82q1 51 34 82q33 32 82 33q49 -1 82 -33q33 -31 34 -82v0zM795 163q-2 75 -51 124t-125 51q-76 -2 -125 -51
t-51 -124q2 -75 51 -124t125 -51q76 2 125 51t51 124v0zM735 163q-1 -50 -34 -82t-82 -33q-49 1 -82 33t-34 82q1 51 34 82q33 32 82 33q49 -1 82 -33q33 -31 34 -82v0zM667 712l-51 27l-451 -743l52 -27z" />
    <glyph glyph-name="ampersand" unicode="&#x26;" horiz-adv-x="704" 
d="M659 383h-81l-97 -168l-163 168q58 28 105 71q48 44 51 113q-2 78 -50 118q-49 41 -121 41q-77 0 -126 -44q-49 -43 -51 -123q1 -49 26 -90q24 -42 57 -76q-66 -30 -112 -80q-47 -51 -49 -129q3 -96 67 -149q64 -52 155 -53q71 1 122 33t94 89l100 -104h102l-159 164z
M402 567q-3 -54 -45 -85q-41 -31 -85 -53q-20 17 -46 53t-28 74q1 49 31 76q30 28 75 28q42 -1 69 -25q28 -25 29 -68v0zM441 152q-34 -45 -73 -74q-40 -29 -97 -30q-60 1 -101 38q-42 36 -44 97q-1 53 29 90t99 75z" />
    <glyph glyph-name="quotesingle" unicode="'" horiz-adv-x="260" 
d="M100 473h60v235h-60v-235z" />
    <glyph glyph-name="parenleft" unicode="(" horiz-adv-x="260" 
d="M199 736q-71 -99 -108 -215t-37 -233q0 -123 37 -238q37 -116 104 -210l53 40q-62 101 -95 194t-33 214t34 218q34 96 98 196z" />
    <glyph glyph-name="parenright" unicode=")" horiz-adv-x="260" 
d="M61 -160q71 99 108 215t37 233q0 123 -37 238q-37 116 -104 210l-53 -40q62 -101 95 -194t33 -214t-34 -217q-34 -97 -98 -197z" />
    <glyph glyph-name="asterisk" unicode="*" horiz-adv-x="444" 
d="M252 708h-60v-143l-140 45l-21 -56l141 -45l-90 -121l48 -36l92 124l92 -124l48 36l-90 121l141 45l-21 56l-140 -45v143z" />
    <glyph glyph-name="plus" unicode="+" horiz-adv-x="666" 
d="M363 558h-60v-225h-225v-60h225v-225h60v225h225v60h-225v225z" />
    <glyph glyph-name="comma" unicode="," horiz-adv-x="278" 
d="M213 95h-81l-67 -235h67z" />
    <glyph glyph-name="hyphen" unicode="-" horiz-adv-x="333" 
d="M295 273h-257v-66h257v66z" />
    <glyph glyph-name="period" unicode="." horiz-adv-x="278" 
d="M193 48q0 22 -15 38q-15 15 -39 16q-24 -1 -39 -16q-15 -16 -15 -38t15 -37q15 -16 39 -17q24 1 39 17q15 15 15 37v0z" />
    <glyph glyph-name="slash" unicode="/" horiz-adv-x="370" 
d="M365 706l-57 20l-303 -725l58 -19z" />
    <glyph glyph-name="zero" unicode="0" 
d="M278 720q-148 -8 -196 -124t-44 -242q-4 -126 44 -242t196 -124q148 8 196 124t44 242q4 126 -44 242t-196 124v0zM278 654q112 -8 142 -108t26 -192q4 -92 -26 -192t-142 -108q-112 8 -142 108t-26 192q-4 92 26 192t142 108v0z" />
    <glyph glyph-name="one" unicode="1" 
d="M348 708h-64l-180 -148l45 -54l127 112v-618h72v708z" />
    <glyph glyph-name="two" unicode="2" 
d="M498 66h-372l223 221q56 51 98 110q43 59 45 139q-3 92 -64 138q-62 46 -150 46q-83 -1 -139 -45q-57 -45 -73 -124l76 -8q12 52 50 81q37 29 91 30q58 0 97 -33q39 -32 40 -91q-2 -49 -29 -88t-61 -72l-282 -287v-83h450v66z" />
    <glyph glyph-name="three" unicode="3" 
d="M204 338h31q72 1 125 -32q52 -33 55 -112q-2 -63 -44 -101t-104 -39q-63 0 -99 25q-37 25 -54 75l-76 -23q30 -75 87 -109t136 -34q95 0 159 53q64 52 67 151q-1 68 -38 117q-36 49 -98 63l-3 2q50 17 84 60q35 43 36 102q-2 89 -61 136q-58 48 -144 48q-65 0 -114 -27
q-50 -28 -82 -85l63 -32q22 38 56 58q35 20 79 20q62 0 96 -31q35 -32 35 -89q-2 -70 -46 -100q-44 -31 -109 -30h-37v-66z" />
    <glyph glyph-name="four" unicode="4" 
d="M416 708h-92l-286 -458v-82h306v-168h72v168h102v66h-102v474zM344 234h-246l244 402h2v-402z" />
    <glyph glyph-name="five" unicode="5" 
d="M465 708h-361l-7 -367q34 18 71 29q38 10 76 10q77 -1 125 -46q48 -46 49 -122q-2 -68 -46 -112q-45 -44 -114 -46q-47 1 -83 25q-35 24 -56 66l-71 -31q29 -62 83 -94q53 -32 121 -32q104 2 170 64q66 63 68 167q-2 100 -62 162q-61 63 -162 65q-24 0 -48 -4t-47 -13
l4 213h290v66z" />
    <glyph glyph-name="six" unicode="6" 
d="M385 708h-85l-191 -311q-27 -42 -44 -87q-16 -45 -17 -103q2 -99 65 -158t165 -61q102 2 165 61t65 158q-2 97 -62 157t-154 62q-25 0 -52 -6q-28 -6 -46 -18l-2 2zM120 207q1 69 44 110q43 42 114 43q71 -1 114 -43q43 -41 44 -110q-1 -69 -44 -110q-43 -42 -114 -43
q-71 1 -114 43q-43 41 -44 110v0z" />
    <glyph glyph-name="seven" unicode="7" 
d="M474 708h-420v-66h345l-291 -642h81l285 642v66z" />
    <glyph glyph-name="eight" unicode="8" 
d="M186 375q-60 -17 -96 -66q-35 -49 -36 -120q3 -93 67 -147q65 -53 157 -54q92 1 157 54q64 54 67 147q-1 71 -36 120q-36 49 -96 66v2q47 17 76 60t30 98q-2 86 -59 135t-139 50q-82 -1 -139 -50t-59 -135q1 -55 30 -98t76 -60v-2zM404 529q-1 -56 -36 -90
q-36 -34 -90 -35q-54 1 -90 35q-35 34 -36 90q1 56 36 90q36 34 90 35q54 -1 90 -35q35 -34 36 -90v0zM430 199q-1 -64 -41 -104q-41 -40 -111 -41q-70 1 -110 41q-41 40 -42 104q1 64 42 104q40 40 110 41q70 -1 111 -41q40 -40 41 -104v0z" />
    <glyph glyph-name="nine" unicode="9" 
d="M171 0h85l191 311q27 42 44 87q16 45 17 103q-2 99 -65 158q-63 60 -165 61q-102 -1 -165 -61q-63 -59 -65 -158q2 -97 62 -157t154 -62q25 0 52 6q28 6 46 18l2 -2zM436 501q-1 -69 -44 -110q-43 -42 -114 -43q-71 1 -114 43q-43 41 -44 110q1 69 44 110q43 42 114 43
q71 -1 114 -43q43 -41 44 -110v0z" />
    <glyph glyph-name="colon" unicode=":" horiz-adv-x="278" 
d="M193 419q0 22 -15 38q-15 15 -39 16q-24 -1 -39 -16q-15 -16 -15 -38t15 -37q15 -16 39 -17q24 1 39 17q15 15 15 37v0zM193 48q0 22 -15 38q-15 15 -39 16q-24 -1 -39 -16q-15 -16 -15 -38t15 -37q15 -16 39 -17q24 1 39 17q15 15 15 37v0z" />
    <glyph glyph-name="semicolon" unicode=";" horiz-adv-x="278" 
d="M213 95h-81l-67 -235h67zM202 419q0 22 -15 38q-15 15 -39 16q-24 -1 -39 -16q-15 -16 -15 -38t15 -37q15 -16 39 -17q24 1 39 17q15 15 15 37v0z" />
    <glyph glyph-name="less" unicode="&#x3c;" horiz-adv-x="666" 
d="M588 564l-510 -238v-46l510 -238v60l-429 201l429 201v60z" />
    <glyph glyph-name="equal" unicode="=" horiz-adv-x="666" 
d="M78 408v-60h510v60h-510zM78 258v-60h510v60h-510z" />
    <glyph glyph-name="greater" unicode="&#x3e;" horiz-adv-x="666" 
d="M78 504l429 -201l-429 -201v-60l510 238v46l-510 238v-60z" />
    <glyph glyph-name="question" unicode="?" horiz-adv-x="482" 
d="M276 243q10 99 81 142t81 160q-2 85 -55 130t-135 45q-79 -1 -133 -44q-55 -43 -68 -122l75 -9q10 49 43 79q33 29 84 30q53 -1 84 -32q32 -31 33 -83q-10 -84 -80 -135q-71 -51 -82 -129v-83h72v51zM300 48q0 22 -15 38q-15 15 -39 16q-24 -1 -39 -16q-15 -16 -15 -38
t15 -37q15 -16 39 -17q24 1 39 17q15 15 15 37v0z" />
    <glyph glyph-name="at" unicode="@" horiz-adv-x="800" 
d="M503 409q-2 -67 -45 -137q-43 -69 -110 -75q-41 1 -67 27t-27 69q1 74 48 141q46 68 120 75q33 -1 56 -29q24 -27 25 -71v0zM538 487h-2q-16 45 -46 64q-31 19 -68 18q-107 -5 -170 -89q-63 -85 -64 -193q1 -68 39 -108q38 -41 103 -42q44 1 73 18q29 16 52 41h2
q4 -31 22 -45t48 -14q73 1 149 76q75 75 81 206q-4 137 -101 221q-96 84 -239 86q-157 -4 -263 -108q-107 -104 -111 -264q4 -160 111 -264q106 -104 263 -108q99 1 183 46q83 46 133 129h-63q-42 -57 -110 -89q-67 -32 -143 -32q-132 4 -221 97q-89 92 -93 221
q4 129 93 221q89 93 221 97q109 -2 193 -72q83 -70 87 -185q-3 -86 -50 -151q-46 -64 -101 -67q-11 0 -17 6t-6 14q0 11 3 25q2 13 6 26l84 282h-56z" />
    <glyph glyph-name="A" unicode="A" horiz-adv-x="686" 
d="M162 186h362l78 -186h84l-308 708h-70l-308 -708h84zM343 624l153 -372h-307z" />
    <glyph glyph-name="B" unicode="B" horiz-adv-x="630" 
d="M96 0h216q166 8 215 81q48 73 43 115q-1 78 -43 124t-117 53v2q60 14 92 55q33 41 33 100q-3 99 -70 139t-158 39h-211v-708zM168 642h138q99 -5 127 -49q27 -44 24 -71q-3 -67 -46 -96q-44 -29 -98 -28h-145v244zM168 338h147q87 0 132 -34t45 -104q-2 -69 -54 -102
q-52 -32 -132 -32h-138v272z" />
    <glyph glyph-name="C" unicode="C" horiz-adv-x="704" 
d="M620 154q-41 -60 -94 -84q-53 -23 -109 -22q-138 4 -214 92t-77 214q1 126 77 214t214 92q58 -1 109 -29q50 -28 73 -64l63 47q-48 59 -113 86q-65 26 -132 26q-162 -3 -264 -105q-102 -103 -105 -267q3 -164 105 -267q102 -102 264 -105q89 1 157 38q69 36 105 92z" />
    <glyph glyph-name="D" unicode="D" horiz-adv-x="741" 
d="M86 0h235q139 0 252 89q113 88 120 265q-7 177 -120 266q-113 88 -252 88h-235v-708zM158 642h140q162 -4 240 -89q77 -85 77 -199t-77 -199q-78 -85 -240 -89h-140v576z" />
    <glyph glyph-name="E" unicode="E" horiz-adv-x="593" 
d="M168 335h343v66h-343v241h367v66h-439v-708h451v66h-379v269z" />
    <glyph glyph-name="F" unicode="F" 
d="M168 335h330v66h-330v241h355v66h-427v-708h72v335z" />
    <glyph glyph-name="G" unicode="G" horiz-adv-x="778" 
d="M673 631q-47 47 -110 71q-62 24 -146 24q-162 -3 -264 -105q-102 -103 -105 -267q3 -164 105 -267q102 -102 264 -105q66 0 137 18q70 19 131 54v347h-241v-66h169v-237q-40 -23 -90 -36q-51 -14 -106 -14q-138 4 -214 92t-77 214q1 126 77 214t214 92q65 0 116 -22
q50 -21 86 -60z" />
    <glyph glyph-name="H" unicode="H" horiz-adv-x="722" 
d="M96 0h72v335h386v-335h72v708h-72v-307h-386v307h-72v-708z" />
    <glyph glyph-name="I" unicode="I" horiz-adv-x="264" 
d="M168 708h-72v-708h72v708z" />
    <glyph glyph-name="J" unicode="J" horiz-adv-x="482" 
d="M14 130q13 -73 61 -110q48 -38 122 -38q112 4 157 70q44 66 42 142v514h-72v-484q2 -68 -23 -121q-25 -52 -102 -55q-47 1 -75 26q-27 26 -37 71z" />
    <glyph glyph-name="K" unicode="K" horiz-adv-x="630" 
d="M168 708h-72v-708h72v365h12l348 -365h106l-377 387l357 321h-103l-333 -307h-10v307z" />
    <glyph glyph-name="L" unicode="L" horiz-adv-x="500" 
d="M168 708h-72v-708h402v66h-330v642z" />
    <glyph glyph-name="M" unicode="M" horiz-adv-x="890" 
d="M206 708h-110v-708h72v612h2l256 -612h38l256 612h2v-612h72v708h-110l-239 -576z" />
    <glyph glyph-name="N" unicode="N" horiz-adv-x="778" 
d="M186 708h-90v-708h72v606h2l422 -606h90v708h-72v-600h-2z" />
    <glyph glyph-name="O" unicode="O" horiz-adv-x="834" 
d="M786 354q-3 164 -105 267q-102 102 -264 105q-162 -3 -264 -105q-102 -103 -105 -267q3 -164 105 -267q102 -102 264 -105q162 3 264 105q102 103 105 267v0zM708 354q-1 -126 -77 -214t-214 -92q-138 4 -214 92t-77 214q1 126 77 214t214 92q138 -4 214 -92t77 -214v0z
" />
    <glyph glyph-name="P" unicode="P" horiz-adv-x="574" 
d="M96 0h72v329h134q109 0 171 47q61 48 62 143q-1 95 -62 142q-62 47 -171 47h-206v-708zM168 642h116q95 -1 135 -36q39 -35 38 -87q1 -52 -38 -87q-40 -36 -135 -37h-116v247z" />
    <glyph glyph-name="Q" unicode="Q" horiz-adv-x="834" 
d="M126 363q1 122 74 207q74 86 206 90q132 -4 205 -90q73 -85 74 -207q-1 -122 -74 -207q-73 -86 -205 -90q-132 4 -206 90q-73 85 -74 207v0zM811 66h-214v2q86 47 126 123t40 172q-3 161 -102 260q-99 100 -255 103q-157 -3 -256 -103q-99 -99 -102 -260q3 -160 102 -260
t256 -103h405v66z" />
    <glyph glyph-name="R" unicode="R" horiz-adv-x="593" 
d="M168 329h120l194 -329h88l-204 336q87 9 134 59q47 49 47 124q-1 95 -62 142q-62 47 -171 47h-218v-708h72v329zM168 642h128q95 -1 135 -36q39 -35 38 -87q1 -52 -38 -87q-40 -36 -135 -37h-128v247z" />
    <glyph glyph-name="S" unicode="S" 
d="M494 640q-42 47 -91 67t-109 19q-90 0 -158 -49q-67 -50 -71 -152q23 -173 182 -196q158 -23 181 -152q-3 -63 -49 -96q-47 -33 -103 -33q-56 1 -97 24t-64 62l-65 -47q41 -55 100 -80q58 -25 123 -25q88 1 159 54q70 54 74 151q-23 171 -181 197q-159 25 -182 148
q3 66 48 97t103 31q90 0 137 -69z" />
    <glyph glyph-name="T" unicode="T" horiz-adv-x="574" 
d="M323 642h237v66h-546v-66h237v-642h72v642z" />
    <glyph glyph-name="U" unicode="U" horiz-adv-x="686" 
d="M602 708h-72v-436q-7 -148 -73 -188q-67 -41 -114 -36q-47 -5 -114 36q-66 40 -73 188v436h-72v-444q-4 -95 50 -185t209 -97q155 7 209 97t50 185v444z" />
    <glyph glyph-name="V" unicode="V" horiz-adv-x="611" 
d="M77 708h-80l269 -708h72l276 708h-78l-232 -600h-2z" />
    <glyph glyph-name="W" unicode="W" horiz-adv-x="944" 
d="M80 708h-80l209 -708h84l178 606h2l178 -606h84l209 708h-80l-168 -606h-2l-178 606h-86l-178 -606h-2z" />
    <glyph glyph-name="X" unicode="X" horiz-adv-x="630" 
d="M123 708h-97l239 -336l-259 -372h90l217 321l216 -321h95l-260 372l240 336h-90l-198 -283z" />
    <glyph glyph-name="Y" unicode="Y" horiz-adv-x="574" 
d="M323 305l265 403h-90l-211 -334l-211 334h-90l265 -403v-305h72v305z" />
    <glyph glyph-name="Z" unicode="Z" 
d="M527 708h-498v-66h408l-414 -582v-60h510v66h-419l413 582v60z" />
    <glyph glyph-name="bracketleft" unicode="[" horiz-adv-x="260" 
d="M227 732h-162v-888h162v54h-96v780h96v54z" />
    <glyph glyph-name="backslash" unicode="\" horiz-adv-x="370" 
d="M307 -18l58 19l-303 725l-57 -20z" />
    <glyph glyph-name="bracketright" unicode="]" horiz-adv-x="260" 
d="M33 -156h162v888h-162v-54h96v-780h-96v-54z" />
    <glyph glyph-name="asciicircum" unicode="^" horiz-adv-x="666" 
d="M80 275h62l191 361l191 -361h62l-229 433h-48z" />
    <glyph glyph-name="underscore" unicode="_" horiz-adv-x="500" 
d="M0 -125h500v50h-500v-50z" />
    <glyph glyph-name="grave" unicode="`" horiz-adv-x="240" 
d="M122 564h59l-100 144h-91z" />
    <glyph glyph-name="a" unicode="a" horiz-adv-x="519" 
d="M339 287q-92 4 -187 -24q-96 -28 -104 -138q2 -68 49 -103q47 -34 112 -34q56 0 96 21q41 21 69 67h2q0 -19 2 -39q1 -19 4 -37h64q-3 20 -5 48q-3 29 -3 57v209q-2 85 -51 126q-49 40 -120 40q-66 0 -116 -17q-50 -18 -82 -51l40 -47q30 27 66 41t77 14q61 0 90 -30
q30 -30 30 -91v-12h-33zM372 233v-34q0 -64 -35 -107q-35 -42 -107 -44q-42 0 -75 20t-35 66q7 68 84 85q76 17 134 14h34z" />
    <glyph glyph-name="b" unicode="b" horiz-adv-x="611" 
d="M72 0h66v78h2q34 -47 84 -69q50 -21 98 -21q111 2 179 70t70 176q-2 108 -70 176t-179 70q-48 0 -98 -21q-50 -22 -84 -69h-2v366h-66v-756zM499 234q-1 -81 -48 -132q-46 -52 -129 -54q-83 2 -134 54q-51 51 -53 132q2 81 53 132q51 52 134 54q83 -2 129 -54
q47 -51 48 -132v0z" />
    <glyph glyph-name="c" unicode="c" horiz-adv-x="482" 
d="M467 399q-35 40 -79 60t-92 21q-116 -1 -181 -69q-66 -69 -67 -177q1 -108 67 -177q65 -68 181 -69q48 1 92 21t79 60l-54 41q-17 -26 -47 -44q-31 -17 -70 -18q-83 0 -129 52t-47 134q1 82 47 134t129 52q39 -1 70 -18q30 -18 47 -44z" />
    <glyph glyph-name="d" unicode="d" horiz-adv-x="611" 
d="M539 756h-66v-366h-2q-34 47 -84 69q-50 21 -98 21q-111 -2 -179 -70t-70 -176q2 -108 70 -176t179 -70q48 0 98 21q50 22 84 69h2v-78h66v756zM112 234q1 81 48 132q46 52 129 54q83 -2 134 -54q51 -51 53 -132q-2 -81 -53 -132q-51 -52 -134 -54q-83 2 -129 54
q-47 51 -48 132v0z" />
    <glyph glyph-name="e" unicode="e" 
d="M508 216v30q-1 99 -59 165t-165 69q-102 -2 -168 -70t-68 -176q2 -108 69 -176t173 -70q58 0 109 23q51 24 92 76l-51 42q-20 -33 -58 -56q-39 -24 -92 -25q-71 2 -118 49t-54 119h390zM120 270q2 60 50 104q47 44 114 46q72 -1 112 -42q39 -40 40 -108h-316z" />
    <glyph glyph-name="f" unicode="f" horiz-adv-x="296" 
d="M290 468h-111v120q-2 52 15 86q17 33 70 34q13 0 26 -2t25 -5l12 60q-28 7 -57 7q-72 1 -114 -39q-42 -41 -43 -133v-128h-99v-60h99v-408h66v408h111v60z" />
    <glyph glyph-name="g" unicode="g" horiz-adv-x="611" 
d="M59 -146q45 -48 100 -71q56 -23 125 -23q154 6 204 84q51 78 47 160v464h-66v-78h-2q-41 54 -90 72q-48 19 -91 18q-105 -2 -171 -70q-65 -68 -67 -172q3 -105 71 -170q69 -66 173 -68q52 0 97 20q46 21 78 68h2v-84q1 -78 -41 -130t-141 -54q-57 1 -103 24t-76 62z
M120 240q2 76 50 127q49 51 124 53q83 -2 130 -53q46 -51 47 -127q1 -82 -51 -130q-52 -49 -126 -50q-75 2 -124 53q-48 51 -50 127v0z" />
    <glyph glyph-name="h" unicode="h" 
d="M72 0h66v240q8 123 66 154t76 26q72 0 100 -41q28 -42 27 -120v-259h66v297q0 88 -43 135q-44 47 -133 48q-48 -1 -91 -24q-43 -24 -66 -63h-2v363h-66v-756z" />
    <glyph glyph-name="i" unicode="i" horiz-adv-x="240" 
d="M153 468h-66v-468h66v468zM168 648q-1 21 -15 35q-14 13 -33 13t-33 -13q-14 -14 -15 -35q1 -21 15 -34q14 -14 33 -14t33 14q14 13 15 34v0z" />
    <glyph glyph-name="j" unicode="j" horiz-adv-x="240" 
d="M-31 -230q25 -10 52 -10q100 7 119 63q18 57 13 84v561h-66v-550q2 -35 -11 -65q-13 -31 -60 -33q-8 0 -17 2q-10 2 -18 4l-3 1zM168 648q-1 21 -15 35q-14 13 -33 13t-33 -13q-14 -14 -15 -35q1 -21 15 -34q14 -14 33 -14t33 14q14 13 15 34v0z" />
    <glyph glyph-name="k" unicode="k" horiz-adv-x="482" 
d="M138 756h-66v-756h66v246l243 -246h102l-258 254l233 214h-99l-221 -211v499z" />
    <glyph glyph-name="l" unicode="l" horiz-adv-x="240" 
d="M153 756h-66v-756h66v756z" />
    <glyph glyph-name="m" unicode="m" horiz-adv-x="852" 
d="M72 0h66v240q7 123 60 154t72 26q67 0 93 -38q26 -37 25 -109v-273h66v249q-1 68 29 118t103 53q67 0 93 -38q26 -37 25 -109v-273h66v297q0 88 -43 135q-44 47 -133 48q-48 0 -90 -26q-43 -26 -64 -71q-25 59 -67 79q-42 19 -82 18q-43 0 -84 -21q-42 -21 -67 -62h-2v71
h-71q2 -26 3 -52q2 -26 2 -52v-364z" />
    <glyph glyph-name="n" unicode="n" 
d="M67 468q2 -26 3 -55q2 -28 2 -48v-365h66v240q8 123 66 154t76 26q72 0 100 -41q28 -42 27 -120v-259h66v297q0 88 -43 135q-44 47 -133 48q-48 -1 -91 -24q-43 -24 -66 -63h-2v38q-1 18 -3 37h-68z" />
    <glyph glyph-name="o" unicode="o" horiz-adv-x="593" 
d="M545 234q-2 108 -70 176t-179 70q-111 -2 -178 -70q-68 -68 -70 -176q2 -108 70 -176q67 -68 178 -70q111 2 179 70t70 176v0zM473 234q-1 -81 -48 -132q-46 -52 -129 -54q-82 2 -128 54q-47 51 -48 132q1 81 48 132q46 52 128 54q83 -2 129 -54q47 -51 48 -132v0z" />
    <glyph glyph-name="p" unicode="p" horiz-adv-x="611" 
d="M72 -288h66v366h2q34 -47 84 -69q50 -21 98 -21q111 2 179 70t70 176q-2 108 -70 176t-179 70q-48 0 -98 -21q-50 -22 -84 -69h-2v78h-66v-756zM499 234q-1 -81 -48 -132q-46 -52 -129 -54q-83 2 -134 54q-51 51 -53 132q2 81 53 132q51 52 134 54q83 -2 129 -54
q47 -51 48 -132v0z" />
    <glyph glyph-name="q" unicode="q" horiz-adv-x="611" 
d="M539 468h-66v-78h-2q-34 47 -84 69q-50 21 -98 21q-111 -2 -179 -70t-70 -176q2 -108 70 -176t179 -70q48 0 98 21q50 22 84 69h2v-366h66v756zM112 234q1 81 48 132q46 52 129 54q83 -2 134 -54q51 -51 53 -132q-2 -81 -53 -132q-51 -52 -134 -54q-83 2 -129 54
q-47 51 -48 132v0z" />
    <glyph glyph-name="r" unicode="r" horiz-adv-x="332" 
d="M79 0h66v264q0 51 35 99t110 51q13 0 23 -1q9 -2 15 -4l13 65q-21 6 -49 6q-61 -1 -99 -31q-37 -29 -51 -68h-2v87h-65q2 -50 3 -83t1 -63v-322z" />
    <glyph glyph-name="s" unicode="s" horiz-adv-x="426" 
d="M379 396q-23 45 -65 65q-41 19 -91 19q-69 0 -119 -34q-51 -35 -54 -107q5 -65 48 -92q44 -26 72 -31l64 -15q38 -8 63 -24q25 -17 26 -51q-2 -40 -35 -59t-75 -19q-41 0 -72 19t-51 51l-57 -39q33 -49 80 -70q46 -21 100 -21q71 -1 125 34q54 34 57 110q-1 50 -33 83
q-31 33 -81 45l-67 16q-46 10 -69 26t-23 48q2 37 31 54q30 16 66 16t61 -17t40 -46z" />
    <glyph glyph-name="t" unicode="t" horiz-adv-x="332" 
d="M314 468h-135v132h-66v-132h-99v-60h99v-295q3 -75 39 -101q37 -26 77 -24q25 0 48 4q23 5 41 13l-3 61q-15 -8 -33 -13t-35 -5q-31 -1 -49 16q-19 17 -19 68v276h135v60z" />
    <glyph glyph-name="u" unicode="u" 
d="M478 0q-2 26 -3 55q-2 28 -2 48v365h-66v-240q-8 -123 -66 -154t-76 -26q-72 0 -100 42q-28 41 -27 119v259h-66v-297q0 -88 43 -135q44 -47 133 -48q48 1 91 24q43 24 66 63h2v-37q1 -19 3 -38h68z" />
    <glyph glyph-name="v" unicode="v" horiz-adv-x="482" 
d="M468 468h-75l-149 -394h-2l-149 394h-79l190 -468h74z" />
    <glyph glyph-name="w" unicode="w" horiz-adv-x="722" 
d="M14 468l148 -468h74l124 384h2l124 -384h74l148 468h-78l-108 -380h-2l-125 380h-68l-125 -380h-2l-108 380h-78z" />
    <glyph glyph-name="x" unicode="x" horiz-adv-x="482" 
d="M0 0h84l151 205l157 -205h90l-196 250l163 218h-82l-124 -175l-130 175h-90l170 -218z" />
    <glyph glyph-name="y" unicode="y" horiz-adv-x="482" 
d="M99 468h-83l192 -474l-34 -90q-14 -40 -35 -62t-55 -22q-14 0 -26 3q-13 2 -24 8l-7 -64q15 -4 31 -6q15 -1 30 -1q60 1 93 32q34 31 54 86l234 590h-80l-143 -387z" />
    <glyph glyph-name="z" unicode="z" horiz-adv-x="426" 
d="M393 468h-356v-60h260l-274 -360v-48h380v60h-284l274 360v48z" />
    <glyph glyph-name="braceleft" unicode="{" horiz-adv-x="260" 
d="M12 258q35 0 61 -29q27 -29 28 -82v-178q1 -69 33 -98q31 -28 75 -27h64v60h-56q-35 2 -43 27q-8 26 -7 56v172q-3 71 -36 99q-32 28 -53 29v2q21 1 53 29q33 28 36 99v172q-1 30 7 56q8 25 43 27h56v60h-64q-44 1 -75 -27q-32 -28 -33 -98v-178q-1 -53 -28 -82
q-26 -29 -61 -29v-60z" />
    <glyph glyph-name="bar" unicode="|" horiz-adv-x="222" 
d="M81 750v-1000h60v1000h-60z" />
    <glyph glyph-name="braceright" unicode="}" horiz-adv-x="260" 
d="M248 318q-35 0 -61 29q-27 29 -28 82v178q-1 70 -33 98q-31 28 -75 27h-64v-60h56q35 -2 43 -27q8 -26 7 -56v-172q3 -71 36 -99q32 -28 53 -29v-2q-21 -1 -53 -29q-33 -28 -36 -99v-172q1 -30 -7 -56q-8 -25 -43 -27h-56v-60h64q44 -1 75 27q32 29 33 98v178q1 53 28 82
q26 29 61 29v60z" />
    <glyph glyph-name="asciitilde" unicode="~" horiz-adv-x="666" 
d="M535 368q-14 -22 -39 -47q-25 -24 -60 -26q-28 1 -55 17q-27 15 -52 30q-35 20 -55 25t-49 4q-48 -2 -81 -31t-55 -62l42 -40q14 22 39 47q25 24 60 26q28 -1 55 -17q27 -15 52 -30q35 -20 55 -25t49 -4q48 2 81 31t55 62z" />
    <glyph glyph-name="uni0080" horiz-adv-x="686" 
d="M162 186h362l78 -186h84l-308 708h-70l-308 -708h84zM343 624l153 -372h-307zM196 822q0 -20 14 -35t37 -16q23 1 37 16t14 35t-14 35t-37 16q-23 -1 -37 -16t-14 -35v0zM388 822q0 -20 14 -35t37 -16q23 1 37 16t14 35t-14 35t-37 16q-23 -1 -37 -16t-14 -35v0z" />
    <glyph glyph-name="uni0080" unicode="&#xc4;" horiz-adv-x="686" 
d="M162 186h362l78 -186h84l-308 708h-70l-308 -708h84zM343 624l153 -372h-307zM196 822q0 -20 14 -35t37 -16q23 1 37 16t14 35t-14 35t-37 16q-23 -1 -37 -16t-14 -35v0zM388 822q0 -20 14 -35t37 -16q23 1 37 16t14 35t-14 35t-37 16q-23 -1 -37 -16t-14 -35v0z" />
    <glyph glyph-name="uni0081" horiz-adv-x="686" 
d="M162 186h362l78 -186h84l-308 708h-70l-308 -708h84zM343 624l153 -372h-307zM439 825q-1 41 -28 68q-28 26 -68 27q-40 -1 -67 -27q-28 -27 -29 -68q1 -41 29 -68q27 -26 67 -27q40 1 68 27q27 27 28 68v0zM403 825q-1 -25 -18 -42q-17 -16 -42 -17q-25 1 -42 17
q-17 17 -18 42q1 25 18 42q17 16 42 17q25 -1 42 -17q17 -17 18 -42v0z" />
    <glyph glyph-name="uni0081" unicode="&#xc5;" horiz-adv-x="686" 
d="M162 186h362l78 -186h84l-308 708h-70l-308 -708h84zM343 624l153 -372h-307zM439 825q-1 41 -28 68q-28 26 -68 27q-40 -1 -67 -27q-28 -27 -29 -68q1 -41 29 -68q27 -26 67 -27q40 1 68 27q27 27 28 68v0zM403 825q-1 -25 -18 -42q-17 -16 -42 -17q-25 1 -42 17
q-17 17 -18 42q1 25 18 42q17 16 42 17q25 -1 42 -17q17 -17 18 -42v0z" />
    <glyph glyph-name="uni0082" horiz-adv-x="704" 
d="M620 154q-41 -60 -94 -84q-53 -23 -109 -22q-138 4 -214 92t-77 214q1 126 77 214t214 92q58 -1 109 -29q50 -28 73 -64l63 47q-48 59 -113 86q-65 26 -132 26q-162 -3 -264 -105q-102 -103 -105 -267q2 -148 87 -246q84 -99 222 -121l-52 -71l18 -17q10 5 21 8t25 3
q30 -1 40 -15q10 -15 9 -25q-1 -24 -20 -35q-19 -10 -42 -10q-19 0 -38 5q-19 4 -36 13l-16 -36q23 -12 47 -18q25 -6 50 -6q43 0 78 21t37 67q-1 36 -23 56q-23 19 -54 19q-11 0 -19 -2q-9 -2 -17 -5l-2 1l33 44q11 -2 21 -2q89 1 157 38q69 36 105 92z" />
    <glyph glyph-name="uni0082" unicode="&#xc7;" horiz-adv-x="704" 
d="M620 154q-41 -60 -94 -84q-53 -23 -109 -22q-138 4 -214 92t-77 214q1 126 77 214t214 92q58 -1 109 -29q50 -28 73 -64l63 47q-48 59 -113 86q-65 26 -132 26q-162 -3 -264 -105q-102 -103 -105 -267q2 -148 87 -246q84 -99 222 -121l-52 -71l18 -17q10 5 21 8t25 3
q30 -1 40 -15q10 -15 9 -25q-1 -24 -20 -35q-19 -10 -42 -10q-19 0 -38 5q-19 4 -36 13l-16 -36q23 -12 47 -18q25 -6 50 -6q43 0 78 21t37 67q-1 36 -23 56q-23 19 -54 19q-11 0 -19 -2q-9 -2 -17 -5l-2 1l33 44q11 -2 21 -2q89 1 157 38q69 36 105 92z" />
    <glyph glyph-name="uni0083" horiz-adv-x="593" 
d="M168 335h343v66h-343v241h367v66h-439v-708h451v66h-379v269zM427 883h-91l-100 -144h59z" />
    <glyph glyph-name="uni0083" unicode="&#xc9;" horiz-adv-x="593" 
d="M168 335h343v66h-343v241h367v66h-439v-708h451v66h-379v269zM427 883h-91l-100 -144h59z" />
    <glyph glyph-name="uni0084" horiz-adv-x="778" 
d="M186 708h-90v-708h72v606h2l422 -606h90v708h-72v-600h-2zM270 751q4 20 16 34q11 15 33 16q16 0 33 -7t34 -16q18 -9 37 -16q18 -7 36 -7q44 2 65 33q21 30 27 71h-43q-4 -20 -15 -34q-12 -15 -34 -16q-15 0 -32 7t-35 16t-36 16q-19 7 -37 7q-44 -2 -65 -32
q-21 -31 -27 -72h43z" />
    <glyph glyph-name="uni0084" unicode="&#xd1;" horiz-adv-x="778" 
d="M186 708h-90v-708h72v606h2l422 -606h90v708h-72v-600h-2zM270 751q4 20 16 34q11 15 33 16q16 0 33 -7t34 -16q18 -9 37 -16q18 -7 36 -7q44 2 65 33q21 30 27 71h-43q-4 -20 -15 -34q-12 -15 -34 -16q-15 0 -32 7t-35 16t-36 16q-19 7 -37 7q-44 -2 -65 -32
q-21 -31 -27 -72h43z" />
    <glyph glyph-name="uni0085" unicode="&#x85;" horiz-adv-x="834" 
d="M786 354q-3 164 -105 267q-102 102 -264 105q-162 -3 -264 -105q-102 -103 -105 -267q3 -164 105 -267q102 -102 264 -105q162 3 264 105q102 103 105 267v0zM708 354q-1 -126 -77 -214t-214 -92q-138 4 -214 92t-77 214q1 126 77 214t214 92q138 -4 214 -92t77 -214v0z
M270 822q0 -20 14 -35t37 -16q23 1 37 16t14 35t-14 35t-37 16q-23 -1 -37 -16t-14 -35v0zM462 822q0 -20 14 -35t37 -16q23 1 37 16t14 35t-14 35t-37 16q-23 -1 -37 -16t-14 -35v0z" />
    <glyph glyph-name="uni0085" unicode="&#xd6;" horiz-adv-x="834" 
d="M786 354q-3 164 -105 267q-102 102 -264 105q-162 -3 -264 -105q-102 -103 -105 -267q3 -164 105 -267q102 -102 264 -105q162 3 264 105q102 103 105 267v0zM708 354q-1 -126 -77 -214t-214 -92q-138 4 -214 92t-77 214q1 126 77 214t214 92q138 -4 214 -92t77 -214v0z
M270 822q0 -20 14 -35t37 -16q23 1 37 16t14 35t-14 35t-37 16q-23 -1 -37 -16t-14 -35v0zM462 822q0 -20 14 -35t37 -16q23 1 37 16t14 35t-14 35t-37 16q-23 -1 -37 -16t-14 -35v0z" />
    <glyph glyph-name="uni0086" horiz-adv-x="686" 
d="M602 708h-72v-436q-7 -148 -73 -188q-67 -41 -114 -36q-47 -5 -114 36q-66 40 -73 188v436h-72v-444q-4 -95 50 -185t209 -97q155 7 209 97t50 185v444zM196 822q0 -20 14 -35t37 -16q23 1 37 16t14 35t-14 35t-37 16q-23 -1 -37 -16t-14 -35v0zM388 822q0 -20 14 -35
t37 -16q23 1 37 16t14 35t-14 35t-37 16q-23 -1 -37 -16t-14 -35v0z" />
    <glyph glyph-name="uni0086" unicode="&#xdc;" horiz-adv-x="686" 
d="M602 708h-72v-436q-7 -148 -73 -188q-67 -41 -114 -36q-47 -5 -114 36q-66 40 -73 188v436h-72v-444q-4 -95 50 -185t209 -97q155 7 209 97t50 185v444zM196 822q0 -20 14 -35t37 -16q23 1 37 16t14 35t-14 35t-37 16q-23 -1 -37 -16t-14 -35v0zM388 822q0 -20 14 -35
t37 -16q23 1 37 16t14 35t-14 35t-37 16q-23 -1 -37 -16t-14 -35v0z" />
    <glyph glyph-name="uni0087" horiz-adv-x="519" 
d="M339 287q-92 4 -187 -24q-96 -28 -104 -138q2 -68 49 -103q47 -34 112 -34q56 0 96 21q41 21 69 67h2q0 -19 2 -39q1 -19 4 -37h64q-3 20 -5 48q-3 29 -3 57v209q-2 85 -51 126q-49 40 -120 40q-66 0 -116 -17q-50 -18 -82 -51l40 -47q30 27 66 41t77 14q61 0 90 -30
q30 -30 30 -91v-12h-33zM372 233v-34q0 -64 -35 -107q-35 -42 -107 -44q-42 0 -75 20t-35 66q7 68 84 85q76 17 134 14h34zM390 708h-91l-100 -144h59z" />
    <glyph glyph-name="uni0087" unicode="&#xe1;" horiz-adv-x="519" 
d="M339 287q-92 4 -187 -24q-96 -28 -104 -138q2 -68 49 -103q47 -34 112 -34q56 0 96 21q41 21 69 67h2q0 -19 2 -39q1 -19 4 -37h64q-3 20 -5 48q-3 29 -3 57v209q-2 85 -51 126q-49 40 -120 40q-66 0 -116 -17q-50 -18 -82 -51l40 -47q30 27 66 41t77 14q61 0 90 -30
q30 -30 30 -91v-12h-33zM372 233v-34q0 -64 -35 -107q-35 -42 -107 -44q-42 0 -75 20t-35 66q7 68 84 85q76 17 134 14h34zM390 708h-91l-100 -144h59z" />
    <glyph glyph-name="uni0088" horiz-adv-x="519" 
d="M339 287q-92 4 -187 -24q-96 -28 -104 -138q2 -68 49 -103q47 -34 112 -34q56 0 96 21q41 21 69 67h2q0 -19 2 -39q1 -19 4 -37h64q-3 20 -5 48q-3 29 -3 57v209q-2 85 -51 126q-49 40 -120 40q-66 0 -116 -17q-50 -18 -82 -51l40 -47q30 27 66 41t77 14q61 0 90 -30
q30 -30 30 -91v-12h-33zM372 233v-34q0 -64 -35 -107q-35 -42 -107 -44q-42 0 -75 20t-35 66q7 68 84 85q76 17 134 14h34zM262 564h59l-100 144h-91z" />
    <glyph glyph-name="uni0088" unicode="&#xe0;" horiz-adv-x="519" 
d="M339 287q-92 4 -187 -24q-96 -28 -104 -138q2 -68 49 -103q47 -34 112 -34q56 0 96 21q41 21 69 67h2q0 -19 2 -39q1 -19 4 -37h64q-3 20 -5 48q-3 29 -3 57v209q-2 85 -51 126q-49 40 -120 40q-66 0 -116 -17q-50 -18 -82 -51l40 -47q30 27 66 41t77 14q61 0 90 -30
q30 -30 30 -91v-12h-33zM372 233v-34q0 -64 -35 -107q-35 -42 -107 -44q-42 0 -75 20t-35 66q7 68 84 85q76 17 134 14h34zM262 564h59l-100 144h-91z" />
    <glyph glyph-name="uni0089" horiz-adv-x="519" 
d="M339 287q-92 4 -187 -24q-96 -28 -104 -138q2 -68 49 -103q47 -34 112 -34q56 0 96 21q41 21 69 67h2q0 -19 2 -39q1 -19 4 -37h64q-3 20 -5 48q-3 29 -3 57v209q-2 85 -51 126q-49 40 -120 40q-66 0 -116 -17q-50 -18 -82 -51l40 -47q30 27 66 41t77 14q61 0 90 -30
q30 -30 30 -91v-12h-33zM372 233v-34q0 -64 -35 -107q-35 -42 -107 -44q-42 0 -75 20t-35 66q7 68 84 85q76 17 134 14h34zM300 708h-80l-109 -144h66l83 108l83 -108h66z" />
    <glyph glyph-name="uni0089" unicode="&#xe2;" horiz-adv-x="519" 
d="M339 287q-92 4 -187 -24q-96 -28 -104 -138q2 -68 49 -103q47 -34 112 -34q56 0 96 21q41 21 69 67h2q0 -19 2 -39q1 -19 4 -37h64q-3 20 -5 48q-3 29 -3 57v209q-2 85 -51 126q-49 40 -120 40q-66 0 -116 -17q-50 -18 -82 -51l40 -47q30 27 66 41t77 14q61 0 90 -30
q30 -30 30 -91v-12h-33zM372 233v-34q0 -64 -35 -107q-35 -42 -107 -44q-42 0 -75 20t-35 66q7 68 84 85q76 17 134 14h34zM300 708h-80l-109 -144h66l83 108l83 -108h66z" />
    <glyph glyph-name="uni008A" horiz-adv-x="519" 
d="M339 287q-92 4 -187 -24q-96 -28 -104 -138q2 -68 49 -103q47 -34 112 -34q56 0 96 21q41 21 69 67h2q0 -19 2 -39q1 -19 4 -37h64q-3 20 -5 48q-3 29 -3 57v209q-2 85 -51 126q-49 40 -120 40q-66 0 -116 -17q-50 -18 -82 -51l40 -47q30 27 66 41t77 14q61 0 90 -30
q30 -30 30 -91v-12h-33zM372 233v-34q0 -64 -35 -107q-35 -42 -107 -44q-42 0 -75 20t-35 66q7 68 84 85q76 17 134 14h34zM113 647q0 -20 14 -35t37 -16q23 1 37 16t14 35t-14 35t-37 16q-23 -1 -37 -16t-14 -35v0zM305 647q0 -20 14 -35t37 -16q23 1 37 16t14 35t-14 35
t-37 16q-23 -1 -37 -16t-14 -35v0z" />
    <glyph glyph-name="uni008A" unicode="&#xe4;" horiz-adv-x="519" 
d="M339 287q-92 4 -187 -24q-96 -28 -104 -138q2 -68 49 -103q47 -34 112 -34q56 0 96 21q41 21 69 67h2q0 -19 2 -39q1 -19 4 -37h64q-3 20 -5 48q-3 29 -3 57v209q-2 85 -51 126q-49 40 -120 40q-66 0 -116 -17q-50 -18 -82 -51l40 -47q30 27 66 41t77 14q61 0 90 -30
q30 -30 30 -91v-12h-33zM372 233v-34q0 -64 -35 -107q-35 -42 -107 -44q-42 0 -75 20t-35 66q7 68 84 85q76 17 134 14h34zM113 647q0 -20 14 -35t37 -16q23 1 37 16t14 35t-14 35t-37 16q-23 -1 -37 -16t-14 -35v0zM305 647q0 -20 14 -35t37 -16q23 1 37 16t14 35t-14 35
t-37 16q-23 -1 -37 -16t-14 -35v0z" />
    <glyph glyph-name="uni008B" horiz-adv-x="519" 
d="M339 287q-92 4 -187 -24q-96 -28 -104 -138q2 -68 49 -103q47 -34 112 -34q56 0 96 21q41 21 69 67h2q0 -19 2 -39q1 -19 4 -37h64q-3 20 -5 48q-3 29 -3 57v209q-2 85 -51 126q-49 40 -120 40q-66 0 -116 -17q-50 -18 -82 -51l40 -47q30 27 66 41t77 14q61 0 90 -30
q30 -30 30 -91v-12h-33zM372 233v-34q0 -64 -35 -107q-35 -42 -107 -44q-42 0 -75 20t-35 66q7 68 84 85q76 17 134 14h34zM141 576q4 20 16 34q11 15 33 16q16 0 33 -7t34 -16q18 -9 37 -16q18 -7 36 -7q44 2 65 33q21 30 27 71h-43q-4 -20 -15 -34q-12 -15 -34 -16
q-15 0 -32 7t-35 16t-36 16q-19 7 -37 7q-44 -2 -65 -32q-21 -31 -27 -72h43z" />
    <glyph glyph-name="uni008B" unicode="&#xe3;" horiz-adv-x="519" 
d="M339 287q-92 4 -187 -24q-96 -28 -104 -138q2 -68 49 -103q47 -34 112 -34q56 0 96 21q41 21 69 67h2q0 -19 2 -39q1 -19 4 -37h64q-3 20 -5 48q-3 29 -3 57v209q-2 85 -51 126q-49 40 -120 40q-66 0 -116 -17q-50 -18 -82 -51l40 -47q30 27 66 41t77 14q61 0 90 -30
q30 -30 30 -91v-12h-33zM372 233v-34q0 -64 -35 -107q-35 -42 -107 -44q-42 0 -75 20t-35 66q7 68 84 85q76 17 134 14h34zM141 576q4 20 16 34q11 15 33 16q16 0 33 -7t34 -16q18 -9 37 -16q18 -7 36 -7q44 2 65 33q21 30 27 71h-43q-4 -20 -15 -34q-12 -15 -34 -16
q-15 0 -32 7t-35 16t-36 16q-19 7 -37 7q-44 -2 -65 -32q-21 -31 -27 -72h43z" />
    <glyph glyph-name="uni008C" horiz-adv-x="519" 
d="M339 287q-92 4 -187 -24q-96 -28 -104 -138q2 -68 49 -103q47 -34 112 -34q56 0 96 21q41 21 69 67h2q0 -19 2 -39q1 -19 4 -37h64q-3 20 -5 48q-3 29 -3 57v209q-2 85 -51 126q-49 40 -120 40q-66 0 -116 -17q-50 -18 -82 -51l40 -47q30 27 66 41t77 14q61 0 90 -30
q30 -30 30 -91v-12h-33zM372 233v-34q0 -64 -35 -107q-35 -42 -107 -44q-42 0 -75 20t-35 66q7 68 84 85q76 17 134 14h34zM356 650q-1 41 -28 68q-28 26 -68 27q-40 -1 -67 -27q-28 -27 -29 -68q1 -41 29 -68q27 -26 67 -27q40 1 68 27q27 27 28 68v0zM320 650
q-1 -25 -18 -42q-17 -16 -42 -17q-25 1 -42 17q-17 17 -18 42q1 25 18 42q17 16 42 17q25 -1 42 -17q17 -17 18 -42v0z" />
    <glyph glyph-name="uni008C" unicode="&#xe5;" horiz-adv-x="519" 
d="M339 287q-92 4 -187 -24q-96 -28 -104 -138q2 -68 49 -103q47 -34 112 -34q56 0 96 21q41 21 69 67h2q0 -19 2 -39q1 -19 4 -37h64q-3 20 -5 48q-3 29 -3 57v209q-2 85 -51 126q-49 40 -120 40q-66 0 -116 -17q-50 -18 -82 -51l40 -47q30 27 66 41t77 14q61 0 90 -30
q30 -30 30 -91v-12h-33zM372 233v-34q0 -64 -35 -107q-35 -42 -107 -44q-42 0 -75 20t-35 66q7 68 84 85q76 17 134 14h34zM356 650q-1 41 -28 68q-28 26 -68 27q-40 -1 -67 -27q-28 -27 -29 -68q1 -41 29 -68q27 -26 67 -27q40 1 68 27q27 27 28 68v0zM320 650
q-1 -25 -18 -42q-17 -16 -42 -17q-25 1 -42 17q-17 17 -18 42q1 25 18 42q17 16 42 17q25 -1 42 -17q17 -17 18 -42v0z" />
    <glyph glyph-name="uni008D" horiz-adv-x="482" 
d="M467 399q-35 40 -79 60t-92 21q-116 -1 -181 -69q-66 -69 -67 -177q1 -96 54 -162t148 -80l-56 -76l18 -17q10 5 21 8t25 3q30 -1 40 -15q10 -15 9 -25q-1 -24 -20 -35q-19 -10 -42 -10q-19 0 -38 5q-19 4 -36 13l-16 -36q23 -12 47 -18q25 -6 50 -6q43 0 78 21t37 67
q-1 36 -23 56q-23 19 -54 19q-11 0 -19 -2q-9 -2 -17 -5l-2 1l37 49q1 -1 3 -1h4q48 1 92 21t79 60l-54 41q-17 -26 -47 -44q-31 -17 -70 -18q-83 0 -129 52t-47 134q1 82 47 134t129 52q39 -1 70 -18q30 -18 47 -44z" />
    <glyph glyph-name="uni008D" unicode="&#xe7;" horiz-adv-x="482" 
d="M467 399q-35 40 -79 60t-92 21q-116 -1 -181 -69q-66 -69 -67 -177q1 -96 54 -162t148 -80l-56 -76l18 -17q10 5 21 8t25 3q30 -1 40 -15q10 -15 9 -25q-1 -24 -20 -35q-19 -10 -42 -10q-19 0 -38 5q-19 4 -36 13l-16 -36q23 -12 47 -18q25 -6 50 -6q43 0 78 21t37 67
q-1 36 -23 56q-23 19 -54 19q-11 0 -19 -2q-9 -2 -17 -5l-2 1l37 49q1 -1 3 -1h4q48 1 92 21t79 60l-54 41q-17 -26 -47 -44q-31 -17 -70 -18q-83 0 -129 52t-47 134q1 82 47 134t129 52q39 -1 70 -18q30 -18 47 -44z" />
    <glyph glyph-name="uni008E" 
d="M508 216v30q-1 99 -59 165t-165 69q-102 -2 -168 -70t-68 -176q2 -108 69 -176t173 -70q58 0 109 23q51 24 92 76l-51 42q-20 -33 -58 -56q-39 -24 -92 -25q-71 2 -118 49t-54 119h390zM120 270q2 60 50 104q47 44 114 46q72 -1 112 -42q39 -40 40 -108h-316zM408 708
h-91l-100 -144h59z" />
    <glyph glyph-name="uni008E" unicode="&#xe9;" 
d="M508 216v30q-1 99 -59 165t-165 69q-102 -2 -168 -70t-68 -176q2 -108 69 -176t173 -70q58 0 109 23q51 24 92 76l-51 42q-20 -33 -58 -56q-39 -24 -92 -25q-71 2 -118 49t-54 119h390zM120 270q2 60 50 104q47 44 114 46q72 -1 112 -42q39 -40 40 -108h-316zM408 708
h-91l-100 -144h59z" />
    <glyph glyph-name="uni008F" 
d="M508 216v30q-1 99 -59 165t-165 69q-102 -2 -168 -70t-68 -176q2 -108 69 -176t173 -70q58 0 109 23q51 24 92 76l-51 42q-20 -33 -58 -56q-39 -24 -92 -25q-71 2 -118 49t-54 119h390zM120 270q2 60 50 104q47 44 114 46q72 -1 112 -42q39 -40 40 -108h-316zM280 564h59
l-100 144h-91z" />
    <glyph glyph-name="uni008F" unicode="&#xe8;" 
d="M508 216v30q-1 99 -59 165t-165 69q-102 -2 -168 -70t-68 -176q2 -108 69 -176t173 -70q58 0 109 23q51 24 92 76l-51 42q-20 -33 -58 -56q-39 -24 -92 -25q-71 2 -118 49t-54 119h390zM120 270q2 60 50 104q47 44 114 46q72 -1 112 -42q39 -40 40 -108h-316zM280 564h59
l-100 144h-91z" />
    <glyph glyph-name="uni0090" 
d="M508 216v30q-1 99 -59 165t-165 69q-102 -2 -168 -70t-68 -176q2 -108 69 -176t173 -70q58 0 109 23q51 24 92 76l-51 42q-20 -33 -58 -56q-39 -24 -92 -25q-71 2 -118 49t-54 119h390zM120 270q2 60 50 104q47 44 114 46q72 -1 112 -42q39 -40 40 -108h-316zM318 708
h-80l-109 -144h66l83 108l83 -108h66z" />
    <glyph glyph-name="uni0090" unicode="&#xea;" 
d="M508 216v30q-1 99 -59 165t-165 69q-102 -2 -168 -70t-68 -176q2 -108 69 -176t173 -70q58 0 109 23q51 24 92 76l-51 42q-20 -33 -58 -56q-39 -24 -92 -25q-71 2 -118 49t-54 119h390zM120 270q2 60 50 104q47 44 114 46q72 -1 112 -42q39 -40 40 -108h-316zM318 708
h-80l-109 -144h66l83 108l83 -108h66z" />
    <glyph glyph-name="uni0091" 
d="M508 216v30q-1 99 -59 165t-165 69q-102 -2 -168 -70t-68 -176q2 -108 69 -176t173 -70q58 0 109 23q51 24 92 76l-51 42q-20 -33 -58 -56q-39 -24 -92 -25q-71 2 -118 49t-54 119h390zM120 270q2 60 50 104q47 44 114 46q72 -1 112 -42q39 -40 40 -108h-316zM131 647
q0 -20 14 -35t37 -16q23 1 37 16t14 35t-14 35t-37 16q-23 -1 -37 -16t-14 -35v0zM323 647q0 -20 14 -35t37 -16q23 1 37 16t14 35t-14 35t-37 16q-23 -1 -37 -16t-14 -35v0z" />
    <glyph glyph-name="uni0091" unicode="&#xeb;" 
d="M508 216v30q-1 99 -59 165t-165 69q-102 -2 -168 -70t-68 -176q2 -108 69 -176t173 -70q58 0 109 23q51 24 92 76l-51 42q-20 -33 -58 -56q-39 -24 -92 -25q-71 2 -118 49t-54 119h390zM120 270q2 60 50 104q47 44 114 46q72 -1 112 -42q39 -40 40 -108h-316zM131 647
q0 -20 14 -35t37 -16q23 1 37 16t14 35t-14 35t-37 16q-23 -1 -37 -16t-14 -35v0zM323 647q0 -20 14 -35t37 -16q23 1 37 16t14 35t-14 35t-37 16q-23 -1 -37 -16t-14 -35v0z" />
    <glyph glyph-name="uni0092" horiz-adv-x="240" 
d="M153 468h-66v-468h66v468zM250 708h-91l-100 -144h59z" />
    <glyph glyph-name="uni0092" unicode="&#xed;" horiz-adv-x="240" 
d="M153 468h-66v-468h66v468zM250 708h-91l-100 -144h59z" />
    <glyph glyph-name="uni0093" horiz-adv-x="240" 
d="M153 468h-66v-468h66v468zM122 564h59l-100 144h-91z" />
    <glyph glyph-name="uni0093" unicode="&#xec;" horiz-adv-x="240" 
d="M153 468h-66v-468h66v468zM122 564h59l-100 144h-91z" />
    <glyph glyph-name="uni0094" horiz-adv-x="240" 
d="M153 468h-66v-468h66v468zM160 708h-80l-109 -144h66l83 108l83 -108h66z" />
    <glyph glyph-name="uni0094" unicode="&#xee;" horiz-adv-x="240" 
d="M153 468h-66v-468h66v468zM160 708h-80l-109 -144h66l83 108l83 -108h66z" />
    <glyph glyph-name="uni0095" horiz-adv-x="240" 
d="M153 468h-66v-468h66v468zM-27 647q0 -20 14 -35t37 -16q23 1 37 16t14 35t-14 35t-37 16q-23 -1 -37 -16t-14 -35v0zM165 647q0 -20 14 -35t37 -16q23 1 37 16t14 35t-14 35t-37 16q-23 -1 -37 -16t-14 -35v0z" />
    <glyph glyph-name="uni0095" unicode="&#xef;" horiz-adv-x="240" 
d="M153 468h-66v-468h66v468zM-27 647q0 -20 14 -35t37 -16q23 1 37 16t14 35t-14 35t-37 16q-23 -1 -37 -16t-14 -35v0zM165 647q0 -20 14 -35t37 -16q23 1 37 16t14 35t-14 35t-37 16q-23 -1 -37 -16t-14 -35v0z" />
    <glyph glyph-name="uni0096" 
d="M67 468q2 -26 3 -55q2 -28 2 -48v-365h66v240q8 123 66 154t76 26q72 0 100 -41q28 -42 27 -120v-259h66v297q0 88 -43 135q-44 47 -133 48q-48 -1 -91 -24q-43 -24 -66 -63h-2v38q-1 18 -3 37h-68zM159 576q4 20 16 34q11 15 33 16q16 0 33 -7t34 -16q18 -9 37 -16
q18 -7 36 -7q44 2 65 33q21 30 27 71h-43q-4 -20 -15 -34q-12 -15 -34 -16q-15 0 -32 7t-35 16t-36 16q-19 7 -37 7q-44 -2 -65 -32q-21 -31 -27 -72h43z" />
    <glyph glyph-name="uni0096" unicode="&#xf1;" 
d="M67 468q2 -26 3 -55q2 -28 2 -48v-365h66v240q8 123 66 154t76 26q72 0 100 -41q28 -42 27 -120v-259h66v297q0 88 -43 135q-44 47 -133 48q-48 -1 -91 -24q-43 -24 -66 -63h-2v38q-1 18 -3 37h-68zM159 576q4 20 16 34q11 15 33 16q16 0 33 -7t34 -16q18 -9 37 -16
q18 -7 36 -7q44 2 65 33q21 30 27 71h-43q-4 -20 -15 -34q-12 -15 -34 -16q-15 0 -32 7t-35 16t-36 16q-19 7 -37 7q-44 -2 -65 -32q-21 -31 -27 -72h43z" />
    <glyph glyph-name="uni0097" horiz-adv-x="593" 
d="M545 234q-2 108 -70 176t-179 70q-111 -2 -178 -70q-68 -68 -70 -176q2 -108 70 -176q67 -68 178 -70q111 2 179 70t70 176v0zM473 234q-1 -81 -48 -132q-46 -52 -129 -54q-82 2 -128 54q-47 51 -48 132q1 81 48 132q46 52 128 54q83 -2 129 -54q47 -51 48 -132v0z
M427 708h-91l-100 -144h59z" />
    <glyph glyph-name="uni0097" unicode="&#xf3;" horiz-adv-x="593" 
d="M545 234q-2 108 -70 176t-179 70q-111 -2 -178 -70q-68 -68 -70 -176q2 -108 70 -176q67 -68 178 -70q111 2 179 70t70 176v0zM473 234q-1 -81 -48 -132q-46 -52 -129 -54q-82 2 -128 54q-47 51 -48 132q1 81 48 132q46 52 128 54q83 -2 129 -54q47 -51 48 -132v0z
M427 708h-91l-100 -144h59z" />
    <glyph glyph-name="uni0098" horiz-adv-x="593" 
d="M545 234q-2 108 -70 176t-179 70q-111 -2 -178 -70q-68 -68 -70 -176q2 -108 70 -176q67 -68 178 -70q111 2 179 70t70 176v0zM473 234q-1 -81 -48 -132q-46 -52 -129 -54q-82 2 -128 54q-47 51 -48 132q1 81 48 132q46 52 128 54q83 -2 129 -54q47 -51 48 -132v0z
M299 564h59l-100 144h-91z" />
    <glyph glyph-name="uni0098" unicode="&#xf2;" horiz-adv-x="593" 
d="M545 234q-2 108 -70 176t-179 70q-111 -2 -178 -70q-68 -68 -70 -176q2 -108 70 -176q67 -68 178 -70q111 2 179 70t70 176v0zM473 234q-1 -81 -48 -132q-46 -52 -129 -54q-82 2 -128 54q-47 51 -48 132q1 81 48 132q46 52 128 54q83 -2 129 -54q47 -51 48 -132v0z
M299 564h59l-100 144h-91z" />
    <glyph glyph-name="uni0099" horiz-adv-x="593" 
d="M545 234q-2 108 -70 176t-179 70q-111 -2 -178 -70q-68 -68 -70 -176q2 -108 70 -176q67 -68 178 -70q111 2 179 70t70 176v0zM473 234q-1 -81 -48 -132q-46 -52 -129 -54q-82 2 -128 54q-47 51 -48 132q1 81 48 132q46 52 128 54q83 -2 129 -54q47 -51 48 -132v0z
M337 708h-80l-109 -144h66l83 108l83 -108h66z" />
    <glyph glyph-name="uni0099" unicode="&#xf4;" horiz-adv-x="593" 
d="M545 234q-2 108 -70 176t-179 70q-111 -2 -178 -70q-68 -68 -70 -176q2 -108 70 -176q67 -68 178 -70q111 2 179 70t70 176v0zM473 234q-1 -81 -48 -132q-46 -52 -129 -54q-82 2 -128 54q-47 51 -48 132q1 81 48 132q46 52 128 54q83 -2 129 -54q47 -51 48 -132v0z
M337 708h-80l-109 -144h66l83 108l83 -108h66z" />
    <glyph glyph-name="uni009A" horiz-adv-x="593" 
d="M545 234q-2 108 -70 176t-179 70q-111 -2 -178 -70q-68 -68 -70 -176q2 -108 70 -176q67 -68 178 -70q111 2 179 70t70 176v0zM473 234q-1 -81 -48 -132q-46 -52 -129 -54q-82 2 -128 54q-47 51 -48 132q1 81 48 132q46 52 128 54q83 -2 129 -54q47 -51 48 -132v0z
M150 647q0 -20 14 -35t37 -16q23 1 37 16t14 35t-14 35t-37 16q-23 -1 -37 -16t-14 -35v0zM342 647q0 -20 14 -35t37 -16q23 1 37 16t14 35t-14 35t-37 16q-23 -1 -37 -16t-14 -35v0z" />
    <glyph glyph-name="uni009A" unicode="&#xf6;" horiz-adv-x="593" 
d="M545 234q-2 108 -70 176t-179 70q-111 -2 -178 -70q-68 -68 -70 -176q2 -108 70 -176q67 -68 178 -70q111 2 179 70t70 176v0zM473 234q-1 -81 -48 -132q-46 -52 -129 -54q-82 2 -128 54q-47 51 -48 132q1 81 48 132q46 52 128 54q83 -2 129 -54q47 -51 48 -132v0z
M150 647q0 -20 14 -35t37 -16q23 1 37 16t14 35t-14 35t-37 16q-23 -1 -37 -16t-14 -35v0zM342 647q0 -20 14 -35t37 -16q23 1 37 16t14 35t-14 35t-37 16q-23 -1 -37 -16t-14 -35v0z" />
    <glyph glyph-name="uni009B" horiz-adv-x="593" 
d="M545 234q-2 108 -70 176t-179 70q-111 -2 -178 -70q-68 -68 -70 -176q2 -108 70 -176q67 -68 178 -70q111 2 179 70t70 176v0zM473 234q-1 -81 -48 -132q-46 -52 -129 -54q-82 2 -128 54q-47 51 -48 132q1 81 48 132q46 52 128 54q83 -2 129 -54q47 -51 48 -132v0z
M178 576q4 20 16 34q11 15 33 16q16 0 33 -7t34 -16q18 -9 37 -16q18 -7 36 -7q44 2 65 33q21 30 27 71h-43q-4 -20 -15 -34q-12 -15 -34 -16q-15 0 -32 7t-35 16t-36 16q-19 7 -37 7q-44 -2 -65 -32q-21 -31 -27 -72h43z" />
    <glyph glyph-name="uni009B" unicode="&#xf5;" horiz-adv-x="593" 
d="M545 234q-2 108 -70 176t-179 70q-111 -2 -178 -70q-68 -68 -70 -176q2 -108 70 -176q67 -68 178 -70q111 2 179 70t70 176v0zM473 234q-1 -81 -48 -132q-46 -52 -129 -54q-82 2 -128 54q-47 51 -48 132q1 81 48 132q46 52 128 54q83 -2 129 -54q47 -51 48 -132v0z
M178 576q4 20 16 34q11 15 33 16q16 0 33 -7t34 -16q18 -9 37 -16q18 -7 36 -7q44 2 65 33q21 30 27 71h-43q-4 -20 -15 -34q-12 -15 -34 -16q-15 0 -32 7t-35 16t-36 16q-19 7 -37 7q-44 -2 -65 -32q-21 -31 -27 -72h43z" />
    <glyph glyph-name="uni009C" 
d="M478 0q-2 26 -3 55q-2 28 -2 48v365h-66v-240q-8 -123 -66 -154t-76 -26q-72 0 -100 42q-28 41 -27 119v259h-66v-297q0 -88 43 -135q44 -47 133 -48q48 1 91 24q43 24 66 63h2v-37q1 -19 3 -38h68zM408 708h-91l-100 -144h59z" />
    <glyph glyph-name="uni009C" unicode="&#xfa;" 
d="M478 0q-2 26 -3 55q-2 28 -2 48v365h-66v-240q-8 -123 -66 -154t-76 -26q-72 0 -100 42q-28 41 -27 119v259h-66v-297q0 -88 43 -135q44 -47 133 -48q48 1 91 24q43 24 66 63h2v-37q1 -19 3 -38h68zM408 708h-91l-100 -144h59z" />
    <glyph glyph-name="uni009D" 
d="M478 0q-2 26 -3 55q-2 28 -2 48v365h-66v-240q-8 -123 -66 -154t-76 -26q-72 0 -100 42q-28 41 -27 119v259h-66v-297q0 -88 43 -135q44 -47 133 -48q48 1 91 24q43 24 66 63h2v-37q1 -19 3 -38h68zM280 564h59l-100 144h-91z" />
    <glyph glyph-name="uni009D" unicode="&#xf9;" 
d="M478 0q-2 26 -3 55q-2 28 -2 48v365h-66v-240q-8 -123 -66 -154t-76 -26q-72 0 -100 42q-28 41 -27 119v259h-66v-297q0 -88 43 -135q44 -47 133 -48q48 1 91 24q43 24 66 63h2v-37q1 -19 3 -38h68zM280 564h59l-100 144h-91z" />
    <glyph glyph-name="uni009E" 
d="M478 0q-2 26 -3 55q-2 28 -2 48v365h-66v-240q-8 -123 -66 -154t-76 -26q-72 0 -100 42q-28 41 -27 119v259h-66v-297q0 -88 43 -135q44 -47 133 -48q48 1 91 24q43 24 66 63h2v-37q1 -19 3 -38h68zM318 708h-80l-109 -144h66l83 108l83 -108h66z" />
    <glyph glyph-name="uni009E" unicode="&#xfb;" 
d="M478 0q-2 26 -3 55q-2 28 -2 48v365h-66v-240q-8 -123 -66 -154t-76 -26q-72 0 -100 42q-28 41 -27 119v259h-66v-297q0 -88 43 -135q44 -47 133 -48q48 1 91 24q43 24 66 63h2v-37q1 -19 3 -38h68zM318 708h-80l-109 -144h66l83 108l83 -108h66z" />
    <glyph glyph-name="uni009F" 
d="M478 0q-2 26 -3 55q-2 28 -2 48v365h-66v-240q-8 -123 -66 -154t-76 -26q-72 0 -100 42q-28 41 -27 119v259h-66v-297q0 -88 43 -135q44 -47 133 -48q48 1 91 24q43 24 66 63h2v-37q1 -19 3 -38h68zM131 647q0 -20 14 -35t37 -16q23 1 37 16t14 35t-14 35t-37 16
q-23 -1 -37 -16t-14 -35v0zM323 647q0 -20 14 -35t37 -16q23 1 37 16t14 35t-14 35t-37 16q-23 -1 -37 -16t-14 -35v0z" />
    <glyph glyph-name="uni009F" unicode="&#xfc;" 
d="M478 0q-2 26 -3 55q-2 28 -2 48v365h-66v-240q-8 -123 -66 -154t-76 -26q-72 0 -100 42q-28 41 -27 119v259h-66v-297q0 -88 43 -135q44 -47 133 -48q48 1 91 24q43 24 66 63h2v-37q1 -19 3 -38h68zM131 647q0 -20 14 -35t37 -16q23 1 37 16t14 35t-14 35t-37 16
q-23 -1 -37 -16t-14 -35v0zM323 647q0 -20 14 -35t37 -16q23 1 37 16t14 35t-14 35t-37 16q-23 -1 -37 -16t-14 -35v0z" />
    <glyph glyph-name="uni00A0" unicode="&#xa0;" horiz-adv-x="278" 
 />
    <glyph glyph-name="exclamdown" unicode="&#xa1;" horiz-adv-x="278" 
d="M103 -228h72v516h-72v-516zM85 432q0 -22 15 -37q15 -16 39 -17q24 1 39 17q15 15 15 37t-15 38q-15 15 -39 16q-24 -1 -39 -16q-15 -16 -15 -38v0z" />
    <glyph glyph-name="cent" unicode="&#xa2;" 
d="M288 51q-65 12 -101 62q-36 49 -37 121q1 72 37 121q36 50 101 62v-366zM336 419q36 -3 64 -20q28 -16 43 -41l54 41q-33 38 -74 58q-42 20 -87 22v61h-48v-63q-99 -12 -154 -78t-56 -165q1 -99 56 -165t154 -78v-63h48v61q45 2 87 22q41 20 74 58l-54 41
q-15 -25 -43 -41q-28 -17 -64 -20v370z" />
    <glyph glyph-name="sterling" unicode="&#xa3;" 
d="M426 395h-168v81q-3 56 22 118q26 61 115 66q35 0 63 -14t48 -37l47 51q-30 31 -71 46q-40 14 -84 14q-122 -3 -168 -71q-46 -69 -44 -167v-87h-96v-60h96v-275h-102v-60h427v60h-253v275h168v60z" />
    <glyph glyph-name="currency" unicode="&#xa4;" 
d="M525 559l-44 44l-53 -53q-33 26 -72 39q-38 14 -78 14t-78 -14q-39 -13 -72 -39l-53 53l-44 -44l53 -53q-26 -33 -40 -71q-14 -39 -13 -81q-1 -42 13 -80q14 -39 40 -72l-53 -53l44 -44l53 53q33 -26 72 -39q38 -14 78 -14t78 14q39 13 72 39l53 -53l44 44l-53 53
q26 33 40 72q14 38 13 80q1 42 -13 81q-14 38 -40 71zM97 354q2 80 53 134q51 53 129 55q77 -2 128 -55q50 -54 52 -134q-2 -80 -52 -133q-51 -54 -128 -56q-78 2 -129 56q-51 53 -53 133v0z" />
    <glyph glyph-name="yen" unicode="&#xa5;" 
d="M79 223v-54h163v-169h72v169h163v54h-163v77l7 12h156v54h-123l204 342h-85l-195 -340l-195 340h-85l205 -342h-124v-54h156l7 -12v-77h-163z" />
    <glyph glyph-name="brokenbar" unicode="&#xa6;" horiz-adv-x="222" 
d="M81 675v-350h60v350h-60zM81 175v-350h60v350h-60z" />
    <glyph glyph-name="section" unicode="&#xa7;" 
d="M453 626q-16 40 -60 67q-45 26 -112 27q-72 0 -122 -40q-51 -41 -53 -118q2 -53 28 -80t49 -40q-45 -19 -74 -52t-30 -82q1 -47 26 -79q24 -32 64 -51l137 -67q32 -15 51 -36q19 -22 19 -52q-2 -58 -38 -80q-36 -23 -78 -22q-42 0 -78 20q-36 21 -54 67l-66 -32
q25 -58 78 -87q52 -28 120 -28q75 0 130 40q55 39 58 123q0 42 -16 71t-53 54q40 21 63 53t24 78q-1 51 -27 85q-27 33 -70 54l-110 56q-35 16 -57 38q-23 21 -24 57q-2 20 20 53q21 33 88 37q46 -2 72 -22q27 -21 36 -42zM242 404l57 -26q36 -15 65 -40q28 -25 30 -68
q-1 -30 -23 -54t-50 -35l-66 32q-34 14 -68 36q-33 22 -36 64q1 31 23 52q21 20 51 32z" />
    <glyph glyph-name="dieresis" unicode="&#xa8;" horiz-adv-x="240" 
d="M-27 647q0 -20 14 -35t37 -16q23 1 37 16t14 35t-14 35t-37 16q-23 -1 -37 -16t-14 -35v0zM165 647q0 -20 14 -35t37 -16q23 1 37 16t14 35t-14 35t-37 16q-23 -1 -37 -16t-14 -35v0z" />
    <glyph glyph-name="copyright" unicode="&#xa9;" horiz-adv-x="800" 
d="M545 282q-9 -44 -43 -72q-35 -29 -87 -30q-74 2 -118 54q-44 51 -45 122q1 73 42 121q42 48 119 50q53 -1 88 -28t44 -70h56q-12 76 -64 114t-125 38q-104 -2 -161 -64q-58 -62 -59 -163q1 -100 61 -163q59 -63 162 -65q70 1 120 42t67 114h-57zM25 352q4 -161 111 -264
t264 -106q157 3 264 107q107 103 111 267q-4 161 -111 264t-264 106q-157 -3 -264 -107q-107 -103 -111 -267v0zM85 352q3 140 92 229q88 88 223 91q135 -3 223 -91q89 -88 92 -225q-3 -139 -92 -228q-88 -89 -223 -92q-135 3 -223 91q-89 88 -92 225v0z" />
    <glyph glyph-name="ordfeminine" unicode="&#xaa;" horiz-adv-x="337" 
d="M136 424q35 0 60 11t39 31h1l3 -36h54q-2 13 -3 30q-2 16 -2 33v137q2 27 -25 57t-101 33q-32 1 -62 -8q-31 -9 -57 -33l32 -37q18 14 40 22t49 8q31 0 47 -15q17 -14 17 -42v-8h-22q-98 0 -137 -27q-39 -26 -38 -73q2 -42 32 -62q31 -21 73 -21v0zM228 559
q2 -28 -13 -57q-14 -28 -65 -30q-23 0 -40 9q-18 10 -19 29q5 35 49 43q45 8 75 6h13z" />
    <glyph glyph-name="guillemotleft" unicode="&#xab;" horiz-adv-x="482" 
d="M239 416l-47 33l-140 -209l140 -209l47 33l-115 176zM421 416l-47 33l-140 -209l140 -209l47 33l-115 176z" />
    <glyph glyph-name="logicalnot" unicode="&#xac;" horiz-adv-x="666" 
d="M588 408h-510v-60h450v-218h60v278z" />
    <glyph glyph-name="uni00AD" unicode="&#xad;" horiz-adv-x="333" 
d="M295 273h-257v-66h257v66z" />
    <glyph glyph-name="registered" unicode="&#xae;" horiz-adv-x="800" 
d="M261 136h60v185h77l118 -185h65l-124 190q49 5 81 32q32 28 33 85q0 64 -37 94q-38 30 -115 30h-158v-431zM321 513h93q36 1 66 -11q29 -12 31 -56q-2 -49 -35 -61q-34 -12 -81 -10h-74v138zM25 352q4 -161 111 -264t264 -106q157 3 264 107q107 103 111 267
q-4 161 -111 264t-264 106q-157 -3 -264 -107q-107 -103 -111 -267v0zM85 352q3 140 92 229q88 88 223 91q135 -3 223 -91q89 -88 92 -225q-3 -139 -92 -228q-88 -89 -223 -92q-135 3 -223 91q-89 88 -92 225v0z" />
    <glyph glyph-name="macron" unicode="&#xaf;" horiz-adv-x="240" 
d="M255 654h-270v-54h270v54z" />
    <glyph glyph-name="degree" unicode="&#xb0;" horiz-adv-x="400" 
d="M349 571q-1 66 -42 107t-107 42q-66 -1 -107 -42t-42 -107q1 -66 42 -107t107 -42q66 1 107 42t42 107v0zM301 571q-1 -43 -29 -71q-29 -29 -72 -30q-43 1 -71 30q-29 28 -30 71q1 43 30 72q28 28 71 29q43 -1 72 -29q28 -29 29 -72v0z" />
    <glyph glyph-name="plusminus" unicode="&#xb1;" horiz-adv-x="666" 
d="M78 347h225v-151h60v151h225v60h-225v156h-60v-156h-225v-60zM78 48h510v60h-510v-60z" />
    <glyph glyph-name="uni00B2" unicode="&#xb2;" horiz-adv-x="361" 
d="M327 343h-227l130 117q36 31 64 66q28 36 29 84q-2 55 -42 82q-40 28 -97 28q-54 0 -92 -26t-49 -75l56 -9q8 24 31 40q24 15 57 16q28 -1 52 -18q23 -17 24 -42q-1 -29 -19 -53t-39 -43l-171 -164v-57h293v54z" />
    <glyph glyph-name="uni00B3" unicode="&#xb3;" horiz-adv-x="361" 
d="M130 483h29q65 -2 87 -27q23 -25 21 -50q-2 -27 -27 -47q-25 -21 -56 -22q-41 0 -64 16t-34 46l-52 -30q20 -45 57 -65q38 -21 89 -21q62 0 104 32q41 31 43 90q0 40 -25 68q-24 28 -70 36v2q35 11 58 37t24 62q-2 53 -39 81q-38 29 -94 29q-42 1 -74 -15
q-33 -15 -58 -52l47 -33q19 27 39 37q19 10 47 9q31 0 51 -17t21 -45q-1 -34 -30 -50q-28 -17 -70 -17h-24v-54z" />
    <glyph glyph-name="acute" unicode="&#xb4;" horiz-adv-x="240" 
d="M250 708h-91l-100 -144h59z" />
    <glyph glyph-name="mu" unicode="&#xb5;" 
d="M72 -228h66v245q41 -29 110 -29q48 1 91 26q43 26 66 62h2v-76h71q-2 26 -3 52q-2 25 -2 51v365h-66v-240q-1 -87 -41 -133q-40 -47 -101 -47q-71 -1 -99 37q-29 38 -28 124v259h-66v-696z" />
    <glyph glyph-name="paragraph" unicode="&#xb6;" horiz-adv-x="600" 
d="M513 708h-237q-106 -1 -166 -54q-61 -54 -62 -152q2 -80 59 -132t150 -54v-442h66v780h124v-780h66v834z" />
    <glyph glyph-name="periodcentered" unicode="&#xb7;" horiz-adv-x="278" 
d="M193 314q0 22 -15 38q-15 15 -39 16q-24 -1 -39 -16q-15 -16 -15 -38t15 -37q15 -16 39 -17q24 1 39 17q15 15 15 37v0z" />
    <glyph glyph-name="cedilla" unicode="&#xb8;" horiz-adv-x="240" 
d="M156 0h-41l-62 -84l18 -17q10 5 21 8t25 3q30 -1 40 -15q10 -15 9 -25q-1 -24 -20 -35q-19 -10 -42 -10q-19 0 -38 5q-19 4 -36 13l-16 -36q23 -12 47 -18q25 -6 50 -6q43 0 78 21t37 67q-1 36 -23 56q-23 19 -54 19q-11 0 -19 -2q-9 -2 -17 -5l-2 1z" />
    <glyph glyph-name="uni00B9" unicode="&#xb9;" horiz-adv-x="361" 
d="M225 714h-54l-117 -89l29 -38l82 67v-365h60v425z" />
    <glyph glyph-name="ordmasculine" unicode="&#xba;" horiz-adv-x="385" 
d="M354 571q-1 66 -45 107q-45 41 -117 42q-72 -1 -116 -42t-45 -107q1 -64 45 -105t116 -42q72 1 117 42q44 41 45 105v0zM294 571q-1 -42 -28 -70q-28 -28 -74 -29q-45 1 -73 29q-27 28 -28 70q1 42 28 71q28 29 73 30q46 -1 74 -30q27 -29 28 -71v0z" />
    <glyph glyph-name="guillemotright" unicode="&#xbb;" horiz-adv-x="482" 
d="M243 64l47 -33l140 209l-140 209l-47 -33l115 -176zM61 64l47 -33l140 209l-140 209l-47 -33l115 -176z" />
    <glyph glyph-name="onequarter" unicode="&#xbc;" horiz-adv-x="834" 
d="M710 425h-73l-179 -269v-62h192v-94h60v94h60v54h-60v277zM205 -32l450 741l-51 31l-451 -740zM650 148h-138l136 217h2v-217zM235 714h-54l-117 -89l29 -38l82 67v-365h60v425z" />
    <glyph glyph-name="onehalf" unicode="&#xbd;" horiz-adv-x="834" 
d="M180 -32l450 741l-51 31l-451 -740zM210 714h-54l-117 -89l29 -38l82 67v-365h60v425zM795 54h-227l130 117q36 31 64 66q28 36 29 84q-2 55 -42 82q-40 28 -97 28q-54 0 -92 -26t-49 -75l56 -9q8 24 31 40q24 15 57 16q28 -1 52 -18q23 -17 24 -42q-1 -29 -19 -53
t-39 -43l-171 -164v-57h293v54z" />
    <glyph glyph-name="threequarters" unicode="&#xbe;" horiz-adv-x="834" 
d="M730 425h-73l-179 -269v-62h192v-94h60v94h60v54h-60v277zM245 -32l450 741l-51 31l-451 -740zM670 148h-138l136 217h2v-217zM139 483h29q65 -2 87 -27q23 -25 21 -50q-2 -27 -27 -47q-25 -21 -56 -22q-41 0 -64 16t-34 46l-51 -30q19 -45 56 -65q38 -21 89 -21
q62 0 104 32q41 31 43 90q0 40 -25 68q-24 28 -70 36v2q35 11 58 37t24 62q-2 53 -39 81q-38 29 -94 29q-42 1 -74 -15q-33 -15 -58 -52l47 -33q19 27 39 37q19 10 47 9q31 -1 51 -17t21 -41q-1 -37 -30 -54q-28 -17 -70 -17h-24v-54z" />
    <glyph glyph-name="questiondown" unicode="&#xbf;" horiz-adv-x="482" 
d="M206 237q-10 -99 -81 -142t-81 -160q2 -85 55 -130t135 -45q79 1 134 44q54 43 67 122l-75 9q-10 -49 -43 -79q-33 -29 -84 -30q-53 1 -84 32q-32 31 -33 83q10 84 80 135q71 51 82 129v83h-72v-51zM182 432q0 -22 15 -37q15 -16 39 -17q24 1 39 17q15 15 15 37t-15 38
q-15 15 -39 16q-24 -1 -39 -16q-15 -16 -15 -38v0z" />
    <glyph glyph-name="Agrave" unicode="&#xc0;" horiz-adv-x="686" 
d="M162 186h362l78 -186h84l-308 708h-70l-308 -708h84zM343 624l153 -372h-307zM345 739h59l-100 144h-91z" />
    <glyph glyph-name="Aacute" unicode="&#xc1;" horiz-adv-x="686" 
d="M162 186h362l78 -186h84l-308 708h-70l-308 -708h84zM343 624l153 -372h-307zM473 883h-91l-100 -144h59z" />
    <glyph glyph-name="Acircumflex" unicode="&#xc2;" horiz-adv-x="686" 
d="M162 186h362l78 -186h84l-308 708h-70l-308 -708h84zM343 624l153 -372h-307zM383 883h-80l-109 -144h66l83 108l83 -108h66z" />
    <glyph glyph-name="Atilde" unicode="&#xc3;" horiz-adv-x="686" 
d="M162 186h362l78 -186h84l-308 708h-70l-308 -708h84zM343 624l153 -372h-307zM224 751q4 20 16 34q11 15 33 16q16 0 33 -7t34 -16q18 -9 37 -16q18 -7 36 -7q44 2 65 33q21 30 27 71h-43q-4 -20 -15 -34q-12 -15 -34 -16q-15 0 -32 7t-35 16t-36 16q-19 7 -37 7
q-44 -2 -65 -32q-21 -31 -27 -72h43z" />
    <glyph glyph-name="AE" unicode="&#xc6;" horiz-adv-x="944" 
d="M583 642h294v66h-416l-461 -708h85l128 198h298v-198h378v66h-306v269h276v66h-276v241zM255 264l245 378h11v-378h-256z" />
    <glyph glyph-name="Egrave" unicode="&#xc8;" horiz-adv-x="593" 
d="M168 335h343v66h-343v241h367v66h-439v-708h451v66h-379v269zM299 739h59l-100 144h-91z" />
    <glyph glyph-name="Ecircumflex" unicode="&#xca;" horiz-adv-x="593" 
d="M168 335h343v66h-343v241h367v66h-439v-708h451v66h-379v269zM337 883h-80l-109 -144h66l83 108l83 -108h66z" />
    <glyph glyph-name="Edieresis" unicode="&#xcb;" horiz-adv-x="593" 
d="M168 335h343v66h-343v241h367v66h-439v-708h451v66h-379v269zM150 822q0 -20 14 -35t37 -16q23 1 37 16t14 35t-14 35t-37 16q-23 -1 -37 -16t-14 -35v0zM342 822q0 -20 14 -35t37 -16q23 1 37 16t14 35t-14 35t-37 16q-23 -1 -37 -16t-14 -35v0z" />
    <glyph glyph-name="Igrave" unicode="&#xcc;" horiz-adv-x="264" 
d="M168 708h-72v-708h72v708zM134 739h59l-100 144h-91z" />
    <glyph glyph-name="Iacute" unicode="&#xcd;" horiz-adv-x="264" 
d="M168 708h-72v-708h72v708zM262 883h-91l-100 -144h59z" />
    <glyph glyph-name="Icircumflex" unicode="&#xce;" horiz-adv-x="264" 
d="M168 708h-72v-708h72v708zM172 883h-80l-109 -144h66l83 108l83 -108h66z" />
    <glyph glyph-name="Idieresis" unicode="&#xcf;" horiz-adv-x="264" 
d="M168 708h-72v-708h72v708zM-15 822q0 -20 14 -35t37 -16q23 1 37 16t14 35t-14 35t-37 16q-23 -1 -37 -16t-14 -35v0zM177 822q0 -20 14 -35t37 -16q23 1 37 16t14 35t-14 35t-37 16q-23 -1 -37 -16t-14 -35v0z" />
    <glyph glyph-name="Eth" unicode="&#xd0;" horiz-adv-x="741" 
d="M86 0h235q139 0 252 89q113 88 120 265q-7 177 -120 266q-113 88 -252 88h-235v-307h-73v-54h73v-347zM158 347h258v54h-258v241h140q162 -4 240 -89q77 -85 77 -199t-77 -199q-78 -85 -240 -89h-140v281z" />
    <glyph glyph-name="Ograve" unicode="&#xd2;" horiz-adv-x="834" 
d="M786 354q-3 164 -105 267q-102 102 -264 105q-162 -3 -264 -105q-102 -103 -105 -267q3 -164 105 -267q102 -102 264 -105q162 3 264 105q102 103 105 267v0zM708 354q-1 -126 -77 -214t-214 -92q-138 4 -214 92t-77 214q1 126 77 214t214 92q138 -4 214 -92t77 -214v0z
M419 739h59l-100 144h-91z" />
    <glyph glyph-name="Oacute" unicode="&#xd3;" horiz-adv-x="834" 
d="M786 354q-3 164 -105 267q-102 102 -264 105q-162 -3 -264 -105q-102 -103 -105 -267q3 -164 105 -267q102 -102 264 -105q162 3 264 105q102 103 105 267v0zM708 354q-1 -126 -77 -214t-214 -92q-138 4 -214 92t-77 214q1 126 77 214t214 92q138 -4 214 -92t77 -214v0z
M547 883h-91l-100 -144h59z" />
    <glyph glyph-name="Ocircumflex" unicode="&#xd4;" horiz-adv-x="834" 
d="M786 354q-3 164 -105 267q-102 102 -264 105q-162 -3 -264 -105q-102 -103 -105 -267q3 -164 105 -267q102 -102 264 -105q162 3 264 105q102 103 105 267v0zM708 354q-1 -126 -77 -214t-214 -92q-138 4 -214 92t-77 214q1 126 77 214t214 92q138 -4 214 -92t77 -214v0z
M457 883h-80l-109 -144h66l83 108l83 -108h66z" />
    <glyph glyph-name="Otilde" unicode="&#xd5;" horiz-adv-x="834" 
d="M786 354q-3 164 -105 267q-102 102 -264 105q-162 -3 -264 -105q-102 -103 -105 -267q3 -164 105 -267q102 -102 264 -105q162 3 264 105q102 103 105 267v0zM708 354q-1 -126 -77 -214t-214 -92q-138 4 -214 92t-77 214q1 126 77 214t214 92q138 -4 214 -92t77 -214v0z
M298 751q4 20 16 34q11 15 33 16q16 0 33 -7t34 -16q18 -9 37 -16q18 -7 36 -7q44 2 65 33q21 30 27 71h-43q-4 -20 -15 -34q-12 -15 -34 -16q-15 0 -32 7t-35 16t-36 16q-19 7 -37 7q-44 -2 -65 -32q-21 -31 -27 -72h43z" />
    <glyph glyph-name="multiply" unicode="&#xd7;" horiz-adv-x="666" 
d="M174 505l-42 -42l159 -160l-159 -159l42 -43l159 159l158 -159l43 43l-159 159l159 160l-43 42l-158 -159z" />
    <glyph glyph-name="Oslash" unicode="&#xd8;" horiz-adv-x="834" 
d="M766 692l-37 34l-76 -81q-48 39 -108 60t-128 21q-162 -3 -264 -105q-102 -103 -105 -267q0 -77 25 -142t71 -114l-76 -82l37 -34l76 81q47 -39 107 -60t129 -21q162 3 264 105q102 103 105 267q0 77 -25 142t-71 114zM640 556q33 -42 51 -93q17 -52 17 -109
q-1 -126 -77 -214t-214 -92q-58 0 -105 18q-47 17 -83 49zM194 152q-33 41 -50 93q-18 52 -18 109q1 126 77 214t214 92q58 0 105 -18q47 -17 83 -49z" />
    <glyph glyph-name="Ugrave" unicode="&#xd9;" horiz-adv-x="686" 
d="M602 708h-72v-436q-7 -148 -73 -188q-67 -41 -114 -36q-47 -5 -114 36q-66 40 -73 188v436h-72v-444q-4 -95 50 -185t209 -97q155 7 209 97t50 185v444zM345 739h59l-100 144h-91z" />
    <glyph glyph-name="Uacute" unicode="&#xda;" horiz-adv-x="686" 
d="M602 708h-72v-436q-7 -148 -73 -188q-67 -41 -114 -36q-47 -5 -114 36q-66 40 -73 188v436h-72v-444q-4 -95 50 -185t209 -97q155 7 209 97t50 185v444zM473 883h-91l-100 -144h59z" />
    <glyph glyph-name="Ucircumflex" unicode="&#xdb;" horiz-adv-x="686" 
d="M602 708h-72v-436q-7 -148 -73 -188q-67 -41 -114 -36q-47 -5 -114 36q-66 40 -73 188v436h-72v-444q-4 -95 50 -185t209 -97q155 7 209 97t50 185v444zM383 883h-80l-109 -144h66l83 108l83 -108h66z" />
    <glyph glyph-name="Yacute" unicode="&#xdd;" horiz-adv-x="574" 
d="M323 305l265 403h-90l-211 -334l-211 334h-90l265 -403v-305h72v305zM417 883h-91l-100 -144h59z" />
    <glyph glyph-name="Thorn" unicode="&#xde;" horiz-adv-x="574" 
d="M96 0h72v173h160q90 0 148 47q57 47 59 143q-2 95 -59 142q-58 47 -148 47h-160v156h-72v-708zM168 486h116q61 3 115 -19q54 -21 58 -104q-4 -83 -58 -105t-115 -19h-116v247z" />
    <glyph glyph-name="germandbls" unicode="&#xdf;" horiz-adv-x="593" 
d="M150 550q-1 56 30 105q32 50 111 53q52 0 87 -33t36 -93q-2 -67 -43 -95q-41 -29 -103 -28v-60q94 1 147 -42q53 -42 54 -133q-1 -84 -48 -130q-46 -45 -127 -46q-24 0 -48 5v-57q14 -4 29 -6t29 -2q107 1 171 64t66 171q0 80 -41 138q-42 59 -130 69v2q58 21 87 60
q29 40 29 99q-2 85 -55 131q-54 45 -136 46q-119 -3 -166 -68t-45 -156v-544h66v550z" />
    <glyph glyph-name="ae" unicode="&#xe6;" horiz-adv-x="852" 
d="M804 216v30q0 101 -54 166t-158 68q-52 0 -97 -24q-46 -24 -70 -66q-17 39 -59 64q-41 25 -96 26q-57 0 -105 -18q-47 -18 -81 -50l41 -48q29 28 65 42t77 14q30 2 72 -23t48 -98v-29h-111q-83 3 -153 -26q-71 -28 -75 -119q2 -68 49 -103q47 -34 112 -34q73 -1 123 25
q50 25 85 84q27 -56 74 -83q47 -26 101 -26q55 0 106 23t90 72l-52 41q-21 -31 -54 -53t-92 -23q-65 2 -101 48q-35 45 -36 111v9h351zM387 216v-9q-1 -71 -43 -114q-42 -44 -114 -45q-42 0 -75 20t-35 66q3 46 44 65q41 18 86 17h137zM453 270q1 66 41 107q39 42 100 43
q67 -1 105 -42q38 -42 39 -108h-285z" />
    <glyph glyph-name="eth" unicode="&#xf0;" horiz-adv-x="593" 
d="M120 234q1 81 48 132q46 52 128 54q83 -2 129 -54q47 -51 48 -132q-1 -81 -48 -132q-46 -52 -129 -54q-82 2 -128 54q-47 51 -48 132v0zM455 714l-40 35l-102 -53q-23 21 -47 42q-24 20 -50 41l-60 -37q22 -15 46 -35q23 -20 49 -44l-108 -56l36 -36l110 57
q45 -39 83 -85q38 -47 76 -119l-2 -2q-35 30 -71 44t-79 14q-111 -2 -178 -70q-68 -68 -70 -176q2 -108 70 -176q67 -68 178 -70q142 5 197 88q54 83 52 178q1 118 -50 217q-51 98 -143 189z" />
    <glyph glyph-name="divide" unicode="&#xf7;" horiz-adv-x="666" 
d="M588 333h-510v-60h510v60zM387 465q0 22 -15 38q-15 15 -39 16q-24 -1 -39 -16q-15 -16 -15 -38t15 -37q15 -16 39 -17q24 1 39 17q15 15 15 37v0zM387 141q0 22 -15 38q-15 15 -39 16q-24 -1 -39 -16q-15 -16 -15 -38t15 -37q15 -16 39 -17q24 1 39 17q15 15 15 37v0z
" />
    <glyph glyph-name="oslash" unicode="&#xf8;" horiz-adv-x="593" 
d="M439 348q17 -24 25 -53q9 -29 9 -61q-1 -81 -48 -132q-46 -52 -129 -54q-34 0 -62 10t-50 28zM154 120q-17 23 -25 52q-9 29 -9 62q1 81 48 132q46 52 128 54q34 0 63 -10q28 -10 50 -29zM553 465l-32 31l-66 -68q-32 25 -72 38q-40 14 -87 14q-111 -2 -178 -70
q-68 -68 -70 -176q0 -48 15 -89q15 -42 43 -74l-66 -68l32 -31l67 68q30 -24 70 -38t87 -14q111 2 179 70t70 176q0 49 -15 91q-16 41 -43 72z" />
    <glyph glyph-name="yacute" unicode="&#xfd;" horiz-adv-x="482" 
d="M99 468h-83l192 -474l-34 -90q-14 -40 -35 -62t-55 -22q-14 0 -26 3q-13 2 -24 8l-7 -64q15 -4 31 -6q15 -1 30 -1q60 1 93 32q34 31 54 86l234 590h-80l-143 -387zM371 708h-91l-100 -144h59z" />
    <glyph glyph-name="thorn" unicode="&#xfe;" horiz-adv-x="611" 
d="M72 -228h66v306h2q34 -47 84 -69q50 -21 98 -21q111 2 179 70t70 176q-2 108 -70 176t-179 70q-41 1 -89 -19q-48 -21 -93 -80h-2v375h-66v-984zM499 234q-1 -81 -48 -132q-46 -52 -129 -54q-86 2 -136 54q-50 51 -51 132q2 81 53 132q51 52 134 54q83 -2 129 -54
q47 -51 48 -132v0z" />
    <glyph glyph-name="ydieresis" unicode="&#xff;" horiz-adv-x="482" 
d="M99 468h-83l192 -474l-34 -90q-14 -40 -35 -62t-55 -22q-14 0 -26 3q-13 2 -24 8l-7 -64q15 -4 31 -6q15 -1 30 -1q60 1 93 32q34 31 54 86l234 590h-80l-143 -387zM94 647q0 -20 14 -35t37 -16q23 1 37 16t14 35t-14 35t-37 16q-23 -1 -37 -16t-14 -35v0zM286 647
q0 -20 14 -35t37 -16q23 1 37 16t14 35t-14 35t-37 16q-23 -1 -37 -16t-14 -35v0z" />
    <glyph glyph-name="dotlessi" unicode="&#x131;" horiz-adv-x="240" 
d="M153 468h-66v-468h66v468z" />
    <glyph glyph-name="Lslash" unicode="&#x141;" horiz-adv-x="500" 
d="M168 708h-72v-408l-82 -70v-70l82 70v-230h402v66h-330v226l216 186v70l-216 -186v346z" />
    <glyph glyph-name="lslash" unicode="&#x142;" horiz-adv-x="240" 
d="M153 756h-66v-367l-81 -82v-73l81 83v-317h66v386l81 83v73l-81 -84v298z" />
    <glyph glyph-name="OE" unicode="&#x152;" horiz-adv-x="944" 
d="M592 642h294v66h-437q-149 0 -264 -87q-116 -88 -122 -266q-2 -123 88 -235q89 -112 300 -120h447v66h-306v269h282v66h-282v241zM520 66h-71q-190 10 -251 112q-62 101 -57 174q3 143 92 216q89 74 230 74h57v-576z" />
    <glyph glyph-name="oe" unicode="&#x153;" horiz-adv-x="922" 
d="M874 216v30q0 101 -54 166t-158 68q-62 0 -104 -27q-43 -27 -75 -78q-34 56 -87 81q-53 24 -111 24q-103 -2 -169 -70t-68 -176q1 -108 65 -176q63 -68 172 -70q46 0 100 25t95 81q29 -54 76 -80q48 -26 106 -26q55 0 106 23t90 72l-52 41q-21 -31 -54 -53t-92 -23
q-65 2 -101 48q-35 45 -36 111v9h351zM451 234q0 -77 -42 -130q-43 -54 -124 -56q-74 2 -119 54q-45 51 -46 132q1 81 46 132q45 52 119 54q81 -2 124 -55q42 -54 42 -131v0zM523 270q1 66 41 107q39 42 100 43q67 -1 105 -42q38 -42 39 -108h-285z" />
    <glyph glyph-name="Scaron" unicode="&#x160;" 
d="M494 640q-42 47 -91 67t-109 19q-90 0 -158 -49q-67 -50 -71 -152q23 -173 182 -196q158 -23 181 -152q-3 -63 -49 -96q-47 -33 -103 -33q-56 1 -97 24t-64 62l-65 -47q41 -55 100 -80q58 -25 123 -25q88 1 159 54q70 54 74 151q-23 171 -181 197q-159 25 -182 148
q3 66 48 97t103 31q90 0 137 -69zM427 883h-66l-83 -108l-83 108h-66l109 -144h80z" />
    <glyph glyph-name="scaron" unicode="&#x161;" horiz-adv-x="426" 
d="M379 396q-23 45 -65 65q-41 19 -91 19q-69 0 -119 -34q-51 -35 -54 -107q5 -65 48 -92q44 -26 72 -31l64 -15q38 -8 63 -24q25 -17 26 -51q-2 -40 -35 -59t-75 -19q-41 0 -72 19t-51 51l-57 -39q33 -49 80 -70q46 -21 100 -21q71 -1 125 34q54 34 57 110q-1 50 -33 83
q-31 33 -81 45l-67 16q-46 10 -69 26t-23 48q2 37 31 54q30 16 66 16t61 -17t40 -46zM362 708h-66l-83 -108l-83 108h-66l109 -144h80z" />
    <glyph glyph-name="Ydieresis" unicode="&#x178;" horiz-adv-x="574" 
d="M323 305l265 403h-90l-211 -334l-211 334h-90l265 -403v-305h72v305zM140 822q0 -20 14 -35t37 -16q23 1 37 16t14 35t-14 35t-37 16q-23 -1 -37 -16t-14 -35v0zM332 822q0 -20 14 -35t37 -16q23 1 37 16t14 35t-14 35t-37 16q-23 -1 -37 -16t-14 -35v0z" />
    <glyph glyph-name="Zcaron" unicode="&#x17d;" 
d="M527 708h-498v-66h408l-414 -582v-60h510v66h-419l413 582v60zM427 883h-66l-83 -108l-83 108h-66l109 -144h80z" />
    <glyph glyph-name="zcaron" unicode="&#x17e;" horiz-adv-x="426" 
d="M393 468h-356v-60h260l-274 -360v-48h380v60h-284l274 360v48zM362 708h-66l-83 -108l-83 108h-66l109 -144h80z" />
    <glyph glyph-name="florin" unicode="&#x192;" 
d="M423 419h-108l22 125q4 35 23 74t67 42q15 0 30 -5q14 -4 27 -12l34 48q-21 14 -45 22q-24 7 -50 7q-74 -2 -108 -48q-34 -45 -44 -109l-27 -144h-119v-54h108l-63 -338q-5 -40 -23 -72t-63 -34q-13 0 -27 3q-13 3 -25 9l-32 -48q18 -13 39 -18q21 -6 43 -6q79 3 113 49
q33 46 42 103l67 352h119v54z" />
    <glyph glyph-name="circumflex" unicode="&#x2c6;" horiz-adv-x="240" 
d="M160 708h-80l-109 -144h66l83 108l83 -108h66z" />
    <glyph glyph-name="caron" unicode="&#x2c7;" horiz-adv-x="240" 
d="M269 708h-66l-83 -108l-83 108h-66l109 -144h80z" />
    <glyph glyph-name="uni02C9" unicode="&#x2c9;" horiz-adv-x="240" 
d="M255 654h-270v-54h270v54z" />
    <glyph glyph-name="breve" unicode="&#x2d8;" horiz-adv-x="240" 
d="M223 708q-8 -39 -36 -58q-29 -20 -67 -20t-67 20q-28 19 -36 58h-44q5 -63 45 -97q39 -35 102 -35t102 35q40 34 45 97h-44z" />
    <glyph glyph-name="dotaccent" unicode="&#x2d9;" horiz-adv-x="240" 
d="M69 657q0 -20 14 -35t37 -16q23 1 37 16t14 35t-14 35t-37 16q-23 -1 -37 -16t-14 -35v0z" />
    <glyph glyph-name="ring" unicode="&#x2da;" horiz-adv-x="240" 
d="M216 650q-1 41 -28 68q-28 26 -68 27q-40 -1 -67 -27q-28 -27 -29 -68q1 -41 29 -68q27 -26 67 -27q40 1 68 27q27 27 28 68v0zM180 650q-1 -25 -18 -42q-17 -16 -42 -17q-25 1 -42 17q-17 17 -18 42q1 25 18 42q17 16 42 17q25 -1 42 -17q17 -17 18 -42v0z" />
    <glyph glyph-name="ogonek" unicode="&#x2db;" horiz-adv-x="240" 
d="M191 -141q-10 -11 -24 -16q-13 -6 -27 -6q-21 0 -35 14q-14 13 -15 34q0 29 20 57t57 64h-48q-32 -25 -60 -60q-27 -36 -29 -78q1 -39 27 -62q27 -22 63 -23q25 0 49 10q23 9 41 26z" />
    <glyph glyph-name="tilde" unicode="&#x2dc;" horiz-adv-x="240" 
d="M1 576q4 20 16 34q11 15 33 16q16 0 33 -7t34 -16q18 -9 37 -16q18 -7 36 -7q44 2 65 33q21 30 27 71h-43q-4 -20 -15 -34q-12 -15 -34 -16q-15 0 -32 7t-35 16t-36 16q-19 7 -37 7q-44 -2 -65 -32q-21 -31 -27 -72h43z" />
    <glyph glyph-name="hungarumlaut" unicode="&#x2dd;" horiz-adv-x="240" 
d="M116 708h-91l-101 -144h59zM316 708h-91l-100 -144h59z" />
    <glyph glyph-name="uni03A9" unicode="&#x3a9;" horiz-adv-x="722" 
d="M203 55h-152v-55h236v41q-61 40 -107 126t-48 201q1 125 63 207q61 82 168 85q113 -6 169 -95q57 -90 57 -195q-2 -122 -48 -205q-45 -84 -107 -124v-41h236v55h-153v3q54 44 95 128q42 83 44 196q-2 138 -80 234t-212 100q-129 -2 -212 -94q-84 -91 -87 -245
q2 -108 42 -189q39 -81 96 -130v-3z" />
    <glyph glyph-name="uni03BC" unicode="&#x3bc;" 
d="M72 -228h66v245q41 -29 110 -29q48 1 91 26q43 26 66 62h2v-76h71q-2 26 -3 52q-2 25 -2 51v365h-66v-240q-1 -87 -41 -133q-40 -47 -101 -47q-71 -1 -99 37q-29 38 -28 124v259h-66v-696z" />
    <glyph glyph-name="pi" unicode="&#x3c0;" horiz-adv-x="566" 
d="M539 466l7 58h-395q-56 0 -90 -7q-33 -8 -51 -19l11 -45q15 6 41 10q25 3 73 3q-4 -110 -24 -245q-20 -134 -50 -221h65q29 79 50 218q20 140 25 248h189v-325q0 -62 5 -96t12 -45h64q-6 18 -10 52q-5 33 -5 96v318h83z" />
    <glyph glyph-name="endash" unicode="&#x2013;" horiz-adv-x="500" 
d="M500 273h-500v-66h500v66z" />
    <glyph glyph-name="emdash" unicode="&#x2014;" horiz-adv-x="1000" 
d="M1000 273h-1000v-66h1000v66z" />
    <glyph glyph-name="quoteleft" unicode="&#x2018;" horiz-adv-x="260" 
d="M56 473h81l67 235h-67z" />
    <glyph glyph-name="quoteright" unicode="&#x2019;" horiz-adv-x="260" 
d="M204 708h-81l-67 -235h67z" />
    <glyph glyph-name="quotesinglbase" unicode="&#x201a;" horiz-adv-x="260" 
d="M204 95h-81l-67 -235h67z" />
    <glyph glyph-name="quotedblleft" unicode="&#x201c;" horiz-adv-x="519" 
d="M95 473h81l67 235h-67zM276 473h81l67 235h-67z" />
    <glyph glyph-name="quotedblright" unicode="&#x201d;" horiz-adv-x="519" 
d="M424 708h-81l-67 -235h67zM243 708h-81l-67 -235h67z" />
    <glyph glyph-name="quotedblbase" unicode="&#x201e;" horiz-adv-x="519" 
d="M424 95h-81l-67 -235h67zM243 95h-81l-67 -235h67z" />
    <glyph glyph-name="dagger" unicode="&#x2020;" 
d="M311 708h-66v-204h-204v-60h204v-570h66v570h204v60h-204v204z" />
    <glyph glyph-name="daggerdbl" unicode="&#x2021;" 
d="M311 708h-66v-192h-195v-60h195v-330h-195v-60h195v-192h66v192h195v60h-195v330h195v60h-195v192z" />
    <glyph glyph-name="bullet" unicode="&#x2022;" horiz-adv-x="500" 
d="M73 354q2 -75 52 -125t125 -52q75 2 125 52t52 125q-2 75 -52 125t-125 52q-75 -2 -125 -52t-52 -125v0z" />
    <glyph glyph-name="ellipsis" unicode="&#x2026;" horiz-adv-x="1000" 
d="M221 48q0 22 -15 38q-15 15 -39 16q-24 -1 -39 -16q-15 -16 -15 -38t15 -37q15 -16 39 -17q24 1 39 17q15 15 15 37v0zM554 48q0 22 -15 38q-15 15 -39 16q-24 -1 -39 -16q-15 -16 -15 -38t15 -37q15 -16 39 -17q24 1 39 17q15 15 15 37v0zM887 48q0 22 -15 38
q-15 15 -39 16q-24 -1 -39 -16q-15 -16 -15 -38t15 -37q15 -16 39 -17q24 1 39 17q15 15 15 37v0z" />
    <glyph glyph-name="perthousand" unicode="&#x2030;" horiz-adv-x="1000" 
d="M331 566q-2 65 -45 109q-43 43 -108 45q-65 -2 -108 -45q-43 -44 -45 -109q2 -65 45 -108q43 -44 108 -46q65 2 108 46q43 43 45 108v0zM277 566q-1 -42 -29 -71q-28 -28 -70 -29q-42 1 -70 29q-28 29 -29 71q1 42 29 71q28 28 70 29q42 -1 70 -29q28 -29 29 -71v0z
M625 142q-2 65 -45 109q-43 43 -108 45q-65 -2 -108 -45q-43 -44 -45 -109q2 -65 45 -108q43 -44 108 -46q65 2 108 46q43 43 45 108v0zM571 142q-1 -42 -29 -71q-28 -28 -70 -29q-42 1 -70 29q-28 29 -29 71q1 42 29 71q28 28 70 29q42 -1 70 -29q28 -29 29 -71v0zM975 142
q-2 65 -45 109q-43 43 -108 45q-65 -2 -108 -45q-43 -44 -45 -109q2 -65 45 -108q43 -44 108 -46q65 2 108 46q43 43 45 108v0zM921 142q-1 -42 -29 -71q-28 -28 -70 -29q-42 1 -70 29q-28 29 -29 71q1 42 29 71q28 28 70 29q42 -1 70 -29q28 -29 29 -71v0zM575 712l-51 27
l-451 -743l52 -27z" />
    <glyph glyph-name="guilsinglleft" unicode="&#x2039;" horiz-adv-x="315" 
d="M131 240l115 176l-47 33l-140 -209l140 -209l47 33z" />
    <glyph glyph-name="guilsinglright" unicode="&#x203a;" horiz-adv-x="315" 
d="M184 240l-115 -176l47 -33l140 209l-140 209l-47 -33z" />
    <glyph glyph-name="fraction" unicode="&#x2044;" horiz-adv-x="168" 
d="M-115 -32l450 741l-51 31l-451 -740z" />
    <glyph glyph-name="Euro" unicode="&#x20ac;" 
d="M497 618q-23 18 -58 28q-34 11 -76 11q-150 0 -186 -182h283l-17 -56h-275q-3 -36 -3 -76q0 -14 1 -27q0 -14 1 -28h240l-18 -55h-216q15 -88 57 -136q41 -48 113 -49q40 1 74 19q33 17 51 45l47 -34q-29 -46 -77 -68q-49 -22 -104 -22q-107 2 -164 69q-57 66 -72 176
h-75l20 55h49q-2 28 -2 58q0 38 3 73h-69l20 56h57q26 126 96 186q69 59 167 59q43 -1 86 -12q42 -12 68 -28z" />
    <glyph glyph-name="uni2113" unicode="&#x2113;" horiz-adv-x="481" 
d="M424 145q-19 -36 -54 -67q-35 -30 -84 -32q-46 -1 -78 38q-33 39 -35 127v32q95 92 151 185t57 189q0 69 -30 114t-91 47q-57 2 -102 -51t-48 -189v-280q-18 -18 -38 -35q-20 -16 -42 -35l22 -39q14 12 29 24q15 13 29 24v-14q2 -78 41 -133q38 -55 123 -57q59 0 105 32
q46 31 78 92zM173 544q2 101 28 143q27 41 58 40q40 -1 58 -31q17 -30 17 -81q-2 -78 -47 -154t-114 -150v233z" />
    <glyph glyph-name="trademark" unicode="&#x2122;" horiz-adv-x="1000" 
d="M401 708h-329v-54h136v-358h60v358h133v54zM928 708h-90l-129 -316l-129 316h-93v-412h60v346h2l139 -346h39l139 346h2v-346h60v412z" />
    <glyph glyph-name="Omega" unicode="&#x2126;" horiz-adv-x="722" 
d="M203 55h-152v-55h236v41q-61 40 -107 126t-48 201q1 125 63 207q61 82 168 85q113 -6 169 -95q57 -90 57 -195q-2 -122 -48 -205q-45 -84 -107 -124v-41h236v55h-153v3q54 44 95 128q42 83 44 196q-2 138 -80 234t-212 100q-129 -2 -212 -94q-84 -91 -87 -245
q2 -108 42 -189q39 -81 96 -130v-3z" />
    <glyph glyph-name="estimated" unicode="&#x212e;" horiz-adv-x="883" 
d="M847 344v10q-4 155 -119 259q-115 103 -288 107q-172 -4 -287 -107q-115 -104 -119 -259q4 -155 119 -258t287 -107q99 1 183 39q83 37 139 102h-59q-49 -55 -116 -88q-67 -32 -146 -33q-73 1 -137 29q-64 29 -112 79q-8 11 -8 23v199q0 3 1 4q2 1 4 1h658zM698 370
q0 -2 -1 -4q-1 -3 -3 -3h-505q-2 0 -4 3q-1 2 -1 4v196q0 14 9 25q49 49 112 78q64 28 136 29q73 -1 136 -28q63 -28 111 -76q10 -10 10 -24v-200z" />
    <glyph glyph-name="partialdiff" unicode="&#x2202;" horiz-adv-x="543" 
d="M102 686q21 18 54 33t79 16q80 -2 134 -84q55 -82 57 -223v-23t-1 -23h-1q-12 27 -55 61q-42 35 -113 38q-86 -1 -148 -69t-65 -188q0 -91 47 -159q47 -69 143 -73q128 4 193 120q65 117 65 297q-4 195 -77 289t-172 93q-60 -1 -100 -18t-64 -38zM239 48q-60 1 -94 50
q-34 48 -35 127q2 85 46 143q44 57 110 59q60 -3 99 -40t51 -74q-10 -108 -56 -185t-120 -80h-1z" />
    <glyph glyph-name="Delta" unicode="&#x2206;" horiz-adv-x="646" 
d="M32 0h583v48l-252 677h-76l-255 -677v-48zM99 55l160 418q15 43 34 92q18 49 27 80h4q11 -37 32 -91t36 -98l151 -401h-444z" />
    <glyph glyph-name="product" unicode="&#x220f;" horiz-adv-x="696" 
d="M669 644v61h-643v-61h111v-741h65v741h291v-741h65v741h111z" />
    <glyph glyph-name="summation" unicode="&#x2211;" horiz-adv-x="553" 
d="M530 -97v63h-421v3l264 343l-245 332v3h387v58h-480v-47l262 -356l-274 -354v-45h507z" />
    <glyph glyph-name="minus" unicode="&#x2212;" horiz-adv-x="666" 
d="M588 333h-510v-60h510v60z" />
    <glyph glyph-name="uni2215" unicode="&#x2215;" horiz-adv-x="168" 
d="M-115 -32l450 741l-51 31l-451 -740z" />
    <glyph glyph-name="uni2219" unicode="&#x2219;" horiz-adv-x="278" 
d="M193 314q0 22 -15 38q-15 15 -39 16q-24 -1 -39 -16q-15 -16 -15 -38t15 -37q15 -16 39 -17q24 1 39 17q15 15 15 37v0z" />
    <glyph glyph-name="radical" unicode="&#x221a;" horiz-adv-x="570" 
d="M568 837h-50l-190 -837q-3 -18 -7 -37q-3 -19 -5 -34h-2q-3 15 -8 34q-4 19 -9 37l-131 385l-132 -51l15 -42l74 28l163 -473h60z" />
    <glyph glyph-name="infinity" unicode="&#x221e;" horiz-adv-x="780" 
d="M728 294q-1 68 -40 109q-39 42 -105 43q-62 -2 -106 -38q-44 -37 -83 -83q-39 48 -85 84q-45 35 -102 37q-69 -1 -112 -45q-43 -43 -44 -112q2 -66 44 -109q43 -43 105 -45q61 2 106 38q46 36 85 83q52 -59 95 -90q42 -31 90 -31q61 1 106 43q44 42 46 115v1zM206 179
q-49 1 -78 32t-30 77q0 47 27 81q26 33 75 35q54 -2 94 -37q39 -36 72 -79q-31 -36 -70 -71t-88 -38h-2zM578 404q45 0 74 -30q28 -30 29 -84q0 -42 -27 -76q-26 -33 -75 -35q-39 0 -76 29q-36 29 -86 84q27 31 68 70q40 38 92 42h1z" />
    <glyph glyph-name="integral" unicode="&#x222b;" horiz-adv-x="352" 
d="M336 846q-8 5 -23 9q-14 5 -30 5q-25 0 -48 -9q-24 -10 -43 -29q-28 -29 -40 -80t-12 -132q1 -120 7 -256q5 -136 6 -261q0 -78 -10 -118q-10 -41 -25 -59q-9 -11 -22 -17q-12 -6 -25 -6q-15 0 -27 5q-12 4 -19 7l-13 -49q10 -6 27 -11q18 -5 37 -5q28 0 53 12t41 36
q19 25 32 73q12 49 13 131q-1 124 -7 258t-7 254q0 73 8 116t27 66q11 13 25 18q14 6 26 6q10 0 20 -3q11 -3 17 -8z" />
    <glyph glyph-name="approxequal" unicode="&#x2248;" horiz-adv-x="566" 
d="M490 431q-21 -38 -44 -57q-22 -19 -53 -19q-27 0 -49 10q-21 10 -47 25q-21 12 -49 27q-27 14 -64 15q-44 0 -79 -25t-58 -70l30 -23q18 30 42 52q23 22 58 23q25 -1 49 -11q23 -10 46 -23q36 -20 62 -32q26 -11 56 -11q47 1 78 28q31 26 50 66zM490 262q-21 -37 -43 -56
q-23 -19 -53 -19q-28 0 -50 11q-22 10 -47 25q-21 12 -49 26q-27 14 -64 15q-44 0 -79 -25t-58 -70l30 -24q18 31 41 53q24 22 59 23q25 -1 48 -11t47 -23q36 -20 62 -32q26 -11 56 -11q47 1 78 28q31 26 50 66z" />
    <glyph glyph-name="notequal" unicode="&#x2260;" horiz-adv-x="566" 
d="M400 506l-36 17l-54 -117h-258v-45h240l-68 -149h-172v-44h153l-48 -102l36 -17l55 119h266v44h-248l69 149h179v45h-160z" />
    <glyph glyph-name="lessequal" unicode="&#x2264;" horiz-adv-x="566" 
d="M512 97v54l-405 196v2l404 195v54l-453 -227v-47zM514 9v46h-462v-46h462z" />
    <glyph glyph-name="greaterequal" unicode="&#x2265;" horiz-adv-x="566" 
d="M58 598v-54l405 -196v-2l-405 -195v-54l454 227v47zM514 9v46h-462v-46h462z" />
    <glyph glyph-name="lozenge" unicode="&#x25ca;" horiz-adv-x="571" 
d="M514 352l-201 398h-54l-203 -398l201 -397h54zM452 350l-147 -289q-5 -10 -10 -25q-6 -15 -8 -25h-4q-2 9 -6 23q-4 13 -11 28l-149 292l146 286q7 14 12 28q4 13 8 24h2q3 -10 8 -24q6 -15 11 -28z" />
    <glyph glyph-name="uniFB01" unicode="&#xfb01;" horiz-adv-x="537" 
d="M290 468h-111v120q-2 52 15 86q17 33 70 34q13 0 26 -2t25 -5l12 60q-28 7 -57 7q-72 1 -114 -39q-42 -41 -43 -133v-128h-99v-60h99v-408h66v408h111v60zM450 468h-66v-468h66v468zM465 648q-1 21 -15 35q-14 13 -33 13t-33 -13q-14 -14 -15 -35q1 -21 15 -34
q14 -14 33 -14t33 14q14 13 15 34v0z" />
    <glyph glyph-name="uniFB02" unicode="&#xfb02;" horiz-adv-x="537" 
d="M290 468h-111v120q-2 52 15 86q17 33 70 34q13 0 26 -2t25 -5l12 60q-28 7 -57 7q-72 1 -114 -39q-42 -41 -43 -133v-128h-99v-60h99v-408h66v408h111v60zM450 756h-66v-756h66v756z" />
  </font>
</defs>
</svg>
