<svg width="600" height="600" viewBox="0 0 600 600" fill="none" xmlns="http://www.w3.org/2000/svg">
<path d="M40.2235 78.1067C77.933 78.1067 115.643 78.0712 153.352 78.1422C153.386 90.5327 153.352 102.959 153.352 115.385C129.62 115.42 105.888 115.349 82.123 115.42C82.123 245.574 82.123 375.728 82.1565 505.882C105.888 505.953 129.62 505.882 153.352 505.917C153.352 518.343 153.386 530.734 153.352 543.16C115.643 543.231 77.933 543.195 40.2235 543.195C40.2235 388.154 40.2235 233.148 40.2235 78.1067Z" fill="white"/>
<path d="M444.134 78.1418C481.843 78.0708 519.553 78.1063 557.262 78.1418C557.262 233.148 557.262 388.154 557.262 543.159C519.553 543.23 481.843 543.195 444.134 543.159C444.1 530.769 444.1 518.343 444.134 505.952C467.866 505.881 491.598 505.917 515.329 505.917C515.396 375.728 515.363 245.574 515.329 115.384C491.598 115.384 467.866 115.42 444.134 115.384C444.134 102.958 444.1 90.5679 444.134 78.1418Z" fill="white"/>
<path d="M216.101 169.065C226.257 165.657 238.291 165.231 247.978 170.414C260.682 178.118 262.19 195.763 260.883 209.61C260.078 221.823 252.57 233.894 241.006 236.982C230.078 239.29 217.14 238.829 208.928 229.74C200.95 220.58 200.447 207.018 201.319 195.266C202.023 184.793 206.648 173.645 216.101 169.065Z" fill="white"/>
<path d="M350.078 169.136C363.486 164.556 382.29 164.734 390.436 179.077C396.804 192.32 397.106 209.042 391.508 222.639C384.168 239.042 362.849 241.917 348.771 234.355C337.743 228.426 334.894 214.154 335.061 202.189C334.827 189.657 338.413 174.888 350.078 169.136Z" fill="white"/>
<path d="M218.95 395.397C232.625 391.42 251.262 393.977 257.497 409.491C263.128 423.657 263.162 441.693 254.614 454.58C241.676 471.906 208.793 468.852 203.028 445.917C198.57 428.414 200.011 402.462 218.95 395.397Z" fill="white"/>
<path d="M353.095 395.361C366.771 391.42 385.375 393.976 391.609 409.527C398.146 426.213 397.509 450.391 381.788 461.077C366.872 469.988 342.268 465.905 337.207 446.272C332.581 428.698 333.989 402.462 353.095 395.361Z" fill="white"/>
</svg>
